G04 #@! TF.GenerationSoftware,KiCad,Pcbnew,5.0.1+dfsg1-3*
G04 #@! TF.CreationDate,2019-03-17T20:51:20-04:00*
G04 #@! TF.ProjectId,controller,636F6E74726F6C6C65722E6B69636164,rev?*
G04 #@! TF.SameCoordinates,Original*
G04 #@! TF.FileFunction,Legend,Bot*
G04 #@! TF.FilePolarity,Positive*
%FSLAX46Y46*%
G04 Gerber Fmt 4.6, Leading zero omitted, Abs format (unit mm)*
G04 Created by KiCad (PCBNEW 5.0.1+dfsg1-3) date Sun 17 Mar 2019 08:51:20 PM EDT*
%MOMM*%
%LPD*%
G01*
G04 APERTURE LIST*
%ADD10C,0.120000*%
%ADD11C,0.100000*%
G04 APERTURE END LIST*
D10*
G04 #@! TO.C,C2*
X106638748Y-97190000D02*
X107161252Y-97190000D01*
X106638748Y-98610000D02*
X107161252Y-98610000D01*
G04 #@! TO.C,C1*
X106638748Y-96310000D02*
X107161252Y-96310000D01*
X106638748Y-94890000D02*
X107161252Y-94890000D01*
G04 #@! TO.C,C2*
D11*
X107025000Y-99817857D02*
X107060714Y-99853571D01*
X107167857Y-99889285D01*
X107239285Y-99889285D01*
X107346428Y-99853571D01*
X107417857Y-99782142D01*
X107453571Y-99710714D01*
X107489285Y-99567857D01*
X107489285Y-99460714D01*
X107453571Y-99317857D01*
X107417857Y-99246428D01*
X107346428Y-99175000D01*
X107239285Y-99139285D01*
X107167857Y-99139285D01*
X107060714Y-99175000D01*
X107025000Y-99210714D01*
X106739285Y-99210714D02*
X106703571Y-99175000D01*
X106632142Y-99139285D01*
X106453571Y-99139285D01*
X106382142Y-99175000D01*
X106346428Y-99210714D01*
X106310714Y-99282142D01*
X106310714Y-99353571D01*
X106346428Y-99460714D01*
X106775000Y-99889285D01*
X106310714Y-99889285D01*
G04 #@! TO.C,C1*
X107025000Y-94267857D02*
X107060714Y-94303571D01*
X107167857Y-94339285D01*
X107239285Y-94339285D01*
X107346428Y-94303571D01*
X107417857Y-94232142D01*
X107453571Y-94160714D01*
X107489285Y-94017857D01*
X107489285Y-93910714D01*
X107453571Y-93767857D01*
X107417857Y-93696428D01*
X107346428Y-93625000D01*
X107239285Y-93589285D01*
X107167857Y-93589285D01*
X107060714Y-93625000D01*
X107025000Y-93660714D01*
X106310714Y-94339285D02*
X106739285Y-94339285D01*
X106525000Y-94339285D02*
X106525000Y-93589285D01*
X106596428Y-93696428D01*
X106667857Y-93767857D01*
X106739285Y-93803571D01*
G04 #@! TD*
M02*
