M48
;DRILL file {KiCad 5.0.1+dfsg1-3} date Sun 17 Mar 2019 08:51:22 PM EDT
;FORMAT={-:-/ absolute / inch / decimal}
FMAT,2
INCH,TZ
T1C0.0157
T2C0.0394
T3C0.0390
T4C0.1260
%
G90
G05
M72
T1
X3.8189Y-4.1634
X3.8189Y-4.5
X3.8701Y-3.5827
X3.8888Y-4.1447
X3.9094Y-3.5827
X4.0256Y-4.6949
X4.0768Y-4.4823
X4.0906Y-3.8976
X4.1339Y-3.8543
X4.1535Y-4.3474
X4.1791Y-3.6909
X4.188Y-4.3189
X4.2795Y-3.7638
X4.2864Y-4.0461
X4.2972Y-3.9272
X4.3268Y-3.7205
X4.3533Y-3.5748
X4.4075Y-4.4331
X4.4094Y-4.4783
X4.4094Y-4.5374
X4.4439Y-4.1841
X4.4439Y-4.5876
X4.5236Y-3.9075
X4.6142Y-3.5748
X4.6447Y-3.936
X4.6644Y-3.6368
X4.7146Y-3.7943
X4.7638Y-3.9075
X4.814Y-3.7943
T2
X4.7047Y-4.3898
X4.8047Y-4.3898
X4.9047Y-4.3898
X4.7047Y-4.5472
X4.8047Y-4.5472
X4.9047Y-4.5472
X4.7047Y-3.9862
X4.8047Y-3.9862
X4.9047Y-3.9862
X4.7047Y-4.1437
X4.8047Y-4.1437
X4.9047Y-4.1437
X5.0591Y-3.9862
X5.0591Y-4.0862
X5.0591Y-4.1862
X3.4744Y-4.2799
X3.4744Y-4.3799
X3.4744Y-4.4799
X3.4744Y-4.5799
X5.0591Y-4.3898
X5.0591Y-4.4898
X5.0591Y-4.5898
X3.4744Y-3.9846
X3.4744Y-4.0846
T3
X4.5642Y-3.7159
X4.8642Y-3.6759
X4.8642Y-3.7559
T4
X5.2264Y-3.7205
X3.4843Y-3.7205
X3.4843Y-4.813
X5.2264Y-4.813
T0
M30
