G04 #@! TF.GenerationSoftware,KiCad,Pcbnew,5.0.1+dfsg1-3*
G04 #@! TF.CreationDate,2019-03-17T20:51:20-04:00*
G04 #@! TF.ProjectId,controller,636F6E74726F6C6C65722E6B69636164,rev?*
G04 #@! TF.SameCoordinates,Original*
G04 #@! TF.FileFunction,Soldermask,Top*
G04 #@! TF.FilePolarity,Negative*
%FSLAX46Y46*%
G04 Gerber Fmt 4.6, Leading zero omitted, Abs format (unit mm)*
G04 Created by KiCad (PCBNEW 5.0.1+dfsg1-3) date Sun 17 Mar 2019 08:51:20 PM EDT*
%MOMM*%
%LPD*%
G01*
G04 APERTURE LIST*
%ADD10C,0.100000*%
G04 APERTURE END LIST*
D10*
G36*
X133125256Y-120641298D02*
X133231579Y-120662447D01*
X133532042Y-120786903D01*
X133798852Y-120965180D01*
X133802454Y-120967587D01*
X134032413Y-121197546D01*
X134213098Y-121467960D01*
X134337553Y-121768422D01*
X134401000Y-122087389D01*
X134401000Y-122412611D01*
X134337553Y-122731578D01*
X134213098Y-123032040D01*
X134032413Y-123302454D01*
X133802454Y-123532413D01*
X133802451Y-123532415D01*
X133532042Y-123713097D01*
X133231579Y-123837553D01*
X133125256Y-123858702D01*
X132912611Y-123901000D01*
X132587389Y-123901000D01*
X132374744Y-123858702D01*
X132268421Y-123837553D01*
X131967958Y-123713097D01*
X131697549Y-123532415D01*
X131697546Y-123532413D01*
X131467587Y-123302454D01*
X131286902Y-123032040D01*
X131162447Y-122731578D01*
X131099000Y-122412611D01*
X131099000Y-122087389D01*
X131162447Y-121768422D01*
X131286902Y-121467960D01*
X131467587Y-121197546D01*
X131697546Y-120967587D01*
X131701148Y-120965180D01*
X131967958Y-120786903D01*
X132268421Y-120662447D01*
X132374744Y-120641298D01*
X132587389Y-120599000D01*
X132912611Y-120599000D01*
X133125256Y-120641298D01*
X133125256Y-120641298D01*
G37*
G36*
X88875256Y-120641298D02*
X88981579Y-120662447D01*
X89282042Y-120786903D01*
X89548852Y-120965180D01*
X89552454Y-120967587D01*
X89782413Y-121197546D01*
X89963098Y-121467960D01*
X90087553Y-121768422D01*
X90151000Y-122087389D01*
X90151000Y-122412611D01*
X90087553Y-122731578D01*
X89963098Y-123032040D01*
X89782413Y-123302454D01*
X89552454Y-123532413D01*
X89552451Y-123532415D01*
X89282042Y-123713097D01*
X88981579Y-123837553D01*
X88875256Y-123858702D01*
X88662611Y-123901000D01*
X88337389Y-123901000D01*
X88124744Y-123858702D01*
X88018421Y-123837553D01*
X87717958Y-123713097D01*
X87447549Y-123532415D01*
X87447546Y-123532413D01*
X87217587Y-123302454D01*
X87036902Y-123032040D01*
X86912447Y-122731578D01*
X86849000Y-122412611D01*
X86849000Y-122087389D01*
X86912447Y-121768422D01*
X87036902Y-121467960D01*
X87217587Y-121197546D01*
X87447546Y-120967587D01*
X87451148Y-120965180D01*
X87717958Y-120786903D01*
X88018421Y-120662447D01*
X88124744Y-120641298D01*
X88337389Y-120599000D01*
X88662611Y-120599000D01*
X88875256Y-120641298D01*
X88875256Y-120641298D01*
G37*
G36*
X102838677Y-117153465D02*
X102876364Y-117164898D01*
X102911103Y-117183466D01*
X102941548Y-117208452D01*
X102966534Y-117238897D01*
X102985102Y-117273636D01*
X102996535Y-117311323D01*
X103001000Y-117356661D01*
X103001000Y-118193339D01*
X102996535Y-118238677D01*
X102985102Y-118276364D01*
X102966534Y-118311103D01*
X102941548Y-118341548D01*
X102911103Y-118366534D01*
X102876364Y-118385102D01*
X102838677Y-118396535D01*
X102793339Y-118401000D01*
X101706661Y-118401000D01*
X101661323Y-118396535D01*
X101623636Y-118385102D01*
X101588897Y-118366534D01*
X101558452Y-118341548D01*
X101533466Y-118311103D01*
X101514898Y-118276364D01*
X101503465Y-118238677D01*
X101499000Y-118193339D01*
X101499000Y-117356661D01*
X101503465Y-117311323D01*
X101514898Y-117273636D01*
X101533466Y-117238897D01*
X101558452Y-117208452D01*
X101588897Y-117183466D01*
X101623636Y-117164898D01*
X101661323Y-117153465D01*
X101706661Y-117149000D01*
X102793339Y-117149000D01*
X102838677Y-117153465D01*
X102838677Y-117153465D01*
G37*
G36*
X128610443Y-115685519D02*
X128676627Y-115692037D01*
X128789853Y-115726384D01*
X128846467Y-115743557D01*
X128985087Y-115817652D01*
X129002991Y-115827222D01*
X129026441Y-115846467D01*
X129140186Y-115939814D01*
X129208976Y-116023636D01*
X129252778Y-116077009D01*
X129252779Y-116077011D01*
X129336443Y-116233533D01*
X129336443Y-116233534D01*
X129387963Y-116403373D01*
X129405359Y-116580000D01*
X129387963Y-116756627D01*
X129364799Y-116832989D01*
X129336443Y-116926467D01*
X129283046Y-117026364D01*
X129252778Y-117082991D01*
X129245755Y-117091548D01*
X129140186Y-117220186D01*
X129038729Y-117303448D01*
X129002991Y-117332778D01*
X129002989Y-117332779D01*
X128846467Y-117416443D01*
X128789853Y-117433616D01*
X128676627Y-117467963D01*
X128610442Y-117474482D01*
X128544260Y-117481000D01*
X128455740Y-117481000D01*
X128389558Y-117474482D01*
X128323373Y-117467963D01*
X128210147Y-117433616D01*
X128153533Y-117416443D01*
X127997011Y-117332779D01*
X127997009Y-117332778D01*
X127961271Y-117303448D01*
X127859814Y-117220186D01*
X127754245Y-117091548D01*
X127747222Y-117082991D01*
X127716954Y-117026364D01*
X127663557Y-116926467D01*
X127635201Y-116832989D01*
X127612037Y-116756627D01*
X127594641Y-116580000D01*
X127612037Y-116403373D01*
X127663557Y-116233534D01*
X127663557Y-116233533D01*
X127747221Y-116077011D01*
X127747222Y-116077009D01*
X127791024Y-116023636D01*
X127859814Y-115939814D01*
X127973559Y-115846467D01*
X127997009Y-115827222D01*
X128014913Y-115817652D01*
X128153533Y-115743557D01*
X128210147Y-115726384D01*
X128323373Y-115692037D01*
X128389557Y-115685519D01*
X128455740Y-115679000D01*
X128544260Y-115679000D01*
X128610443Y-115685519D01*
X128610443Y-115685519D01*
G37*
G36*
X88360442Y-115435518D02*
X88426627Y-115442037D01*
X88539853Y-115476384D01*
X88596467Y-115493557D01*
X88735087Y-115567652D01*
X88752991Y-115577222D01*
X88788729Y-115606552D01*
X88890186Y-115689814D01*
X88973448Y-115791271D01*
X89002778Y-115827009D01*
X89002779Y-115827011D01*
X89086443Y-115983533D01*
X89086443Y-115983534D01*
X89137963Y-116153373D01*
X89155359Y-116330000D01*
X89137963Y-116506627D01*
X89103616Y-116619853D01*
X89086443Y-116676467D01*
X89043931Y-116756000D01*
X89002778Y-116832991D01*
X88973448Y-116868729D01*
X88890186Y-116970186D01*
X88788729Y-117053448D01*
X88752991Y-117082778D01*
X88736584Y-117091548D01*
X88596467Y-117166443D01*
X88540349Y-117183466D01*
X88426627Y-117217963D01*
X88360443Y-117224481D01*
X88294260Y-117231000D01*
X88205740Y-117231000D01*
X88139557Y-117224481D01*
X88073373Y-117217963D01*
X87959651Y-117183466D01*
X87903533Y-117166443D01*
X87763416Y-117091548D01*
X87747009Y-117082778D01*
X87711271Y-117053448D01*
X87609814Y-116970186D01*
X87526552Y-116868729D01*
X87497222Y-116832991D01*
X87456069Y-116756000D01*
X87413557Y-116676467D01*
X87396384Y-116619853D01*
X87362037Y-116506627D01*
X87344641Y-116330000D01*
X87362037Y-116153373D01*
X87413557Y-115983534D01*
X87413557Y-115983533D01*
X87497221Y-115827011D01*
X87497222Y-115827009D01*
X87526552Y-115791271D01*
X87609814Y-115689814D01*
X87711271Y-115606552D01*
X87747009Y-115577222D01*
X87764913Y-115567652D01*
X87903533Y-115493557D01*
X87960147Y-115476384D01*
X88073373Y-115442037D01*
X88139558Y-115435518D01*
X88205740Y-115429000D01*
X88294260Y-115429000D01*
X88360442Y-115435518D01*
X88360442Y-115435518D01*
G37*
G36*
X117088677Y-115903465D02*
X117126364Y-115914898D01*
X117161103Y-115933466D01*
X117191548Y-115958452D01*
X117216534Y-115988897D01*
X117235102Y-116023636D01*
X117246535Y-116061323D01*
X117251000Y-116106661D01*
X117251000Y-116943339D01*
X117246535Y-116988677D01*
X117235102Y-117026364D01*
X117216534Y-117061103D01*
X117191548Y-117091548D01*
X117161103Y-117116534D01*
X117126364Y-117135102D01*
X117088677Y-117146535D01*
X117043339Y-117151000D01*
X115956661Y-117151000D01*
X115911323Y-117146535D01*
X115873636Y-117135102D01*
X115838897Y-117116534D01*
X115808452Y-117091548D01*
X115783466Y-117061103D01*
X115764898Y-117026364D01*
X115753465Y-116988677D01*
X115749000Y-116943339D01*
X115749000Y-116106661D01*
X115753465Y-116061323D01*
X115764898Y-116023636D01*
X115783466Y-115988897D01*
X115808452Y-115958452D01*
X115838897Y-115933466D01*
X115873636Y-115914898D01*
X115911323Y-115903465D01*
X115956661Y-115899000D01*
X117043339Y-115899000D01*
X117088677Y-115903465D01*
X117088677Y-115903465D01*
G37*
G36*
X114838677Y-115903465D02*
X114876364Y-115914898D01*
X114911103Y-115933466D01*
X114941548Y-115958452D01*
X114966534Y-115988897D01*
X114985102Y-116023636D01*
X114996535Y-116061323D01*
X115001000Y-116106661D01*
X115001000Y-116943339D01*
X114996535Y-116988677D01*
X114985102Y-117026364D01*
X114966534Y-117061103D01*
X114941548Y-117091548D01*
X114911103Y-117116534D01*
X114876364Y-117135102D01*
X114838677Y-117146535D01*
X114793339Y-117151000D01*
X113706661Y-117151000D01*
X113661323Y-117146535D01*
X113623636Y-117135102D01*
X113588897Y-117116534D01*
X113558452Y-117091548D01*
X113533466Y-117061103D01*
X113514898Y-117026364D01*
X113503465Y-116988677D01*
X113499000Y-116943339D01*
X113499000Y-116106661D01*
X113503465Y-116061323D01*
X113514898Y-116023636D01*
X113533466Y-115988897D01*
X113558452Y-115958452D01*
X113588897Y-115933466D01*
X113623636Y-115914898D01*
X113661323Y-115903465D01*
X113706661Y-115899000D01*
X114793339Y-115899000D01*
X114838677Y-115903465D01*
X114838677Y-115903465D01*
G37*
G36*
X111276000Y-116756000D02*
X109624000Y-116756000D01*
X109624000Y-116054000D01*
X111276000Y-116054000D01*
X111276000Y-116756000D01*
X111276000Y-116756000D01*
G37*
G36*
X105876000Y-116756000D02*
X104224000Y-116756000D01*
X104224000Y-116054000D01*
X105876000Y-116054000D01*
X105876000Y-116756000D01*
X105876000Y-116756000D01*
G37*
G36*
X124690443Y-114605519D02*
X124756627Y-114612037D01*
X124869853Y-114646384D01*
X124926467Y-114663557D01*
X124977808Y-114691000D01*
X125082991Y-114747222D01*
X125118729Y-114776552D01*
X125220186Y-114859814D01*
X125303448Y-114961271D01*
X125332778Y-114997009D01*
X125332779Y-114997011D01*
X125416443Y-115153533D01*
X125427170Y-115188897D01*
X125467963Y-115323373D01*
X125485359Y-115500000D01*
X125467963Y-115676627D01*
X125463962Y-115689815D01*
X125416443Y-115846467D01*
X125379865Y-115914898D01*
X125332778Y-116002991D01*
X125318850Y-116019962D01*
X125220186Y-116140186D01*
X125118729Y-116223448D01*
X125082991Y-116252778D01*
X125082989Y-116252779D01*
X124926467Y-116336443D01*
X124895719Y-116345770D01*
X124756627Y-116387963D01*
X124690443Y-116394481D01*
X124624260Y-116401000D01*
X124535740Y-116401000D01*
X124469557Y-116394481D01*
X124403373Y-116387963D01*
X124264281Y-116345770D01*
X124233533Y-116336443D01*
X124077011Y-116252779D01*
X124077009Y-116252778D01*
X124041271Y-116223448D01*
X123939814Y-116140186D01*
X123841150Y-116019962D01*
X123827222Y-116002991D01*
X123780135Y-115914898D01*
X123743557Y-115846467D01*
X123696038Y-115689815D01*
X123692037Y-115676627D01*
X123674641Y-115500000D01*
X123692037Y-115323373D01*
X123732830Y-115188897D01*
X123743557Y-115153533D01*
X123827221Y-114997011D01*
X123827222Y-114997009D01*
X123856552Y-114961271D01*
X123939814Y-114859814D01*
X124041271Y-114776552D01*
X124077009Y-114747222D01*
X124182192Y-114691000D01*
X124233533Y-114663557D01*
X124290147Y-114646384D01*
X124403373Y-114612037D01*
X124469557Y-114605519D01*
X124535740Y-114599000D01*
X124624260Y-114599000D01*
X124690443Y-114605519D01*
X124690443Y-114605519D01*
G37*
G36*
X120401000Y-116401000D02*
X118599000Y-116401000D01*
X118599000Y-114599000D01*
X120401000Y-114599000D01*
X120401000Y-116401000D01*
X120401000Y-116401000D01*
G37*
G36*
X122150443Y-114605519D02*
X122216627Y-114612037D01*
X122329853Y-114646384D01*
X122386467Y-114663557D01*
X122437808Y-114691000D01*
X122542991Y-114747222D01*
X122578729Y-114776552D01*
X122680186Y-114859814D01*
X122763448Y-114961271D01*
X122792778Y-114997009D01*
X122792779Y-114997011D01*
X122876443Y-115153533D01*
X122887170Y-115188897D01*
X122927963Y-115323373D01*
X122945359Y-115500000D01*
X122927963Y-115676627D01*
X122923962Y-115689815D01*
X122876443Y-115846467D01*
X122839865Y-115914898D01*
X122792778Y-116002991D01*
X122778850Y-116019962D01*
X122680186Y-116140186D01*
X122578729Y-116223448D01*
X122542991Y-116252778D01*
X122542989Y-116252779D01*
X122386467Y-116336443D01*
X122355719Y-116345770D01*
X122216627Y-116387963D01*
X122150443Y-116394481D01*
X122084260Y-116401000D01*
X121995740Y-116401000D01*
X121929557Y-116394481D01*
X121863373Y-116387963D01*
X121724281Y-116345770D01*
X121693533Y-116336443D01*
X121537011Y-116252779D01*
X121537009Y-116252778D01*
X121501271Y-116223448D01*
X121399814Y-116140186D01*
X121301150Y-116019962D01*
X121287222Y-116002991D01*
X121240135Y-115914898D01*
X121203557Y-115846467D01*
X121156038Y-115689815D01*
X121152037Y-115676627D01*
X121134641Y-115500000D01*
X121152037Y-115323373D01*
X121192830Y-115188897D01*
X121203557Y-115153533D01*
X121287221Y-114997011D01*
X121287222Y-114997009D01*
X121316552Y-114961271D01*
X121399814Y-114859814D01*
X121501271Y-114776552D01*
X121537009Y-114747222D01*
X121642192Y-114691000D01*
X121693533Y-114663557D01*
X121750147Y-114646384D01*
X121863373Y-114612037D01*
X121929557Y-114605519D01*
X121995740Y-114599000D01*
X122084260Y-114599000D01*
X122150443Y-114605519D01*
X122150443Y-114605519D01*
G37*
G36*
X102838677Y-115103465D02*
X102876364Y-115114898D01*
X102911103Y-115133466D01*
X102941548Y-115158452D01*
X102966534Y-115188897D01*
X102985102Y-115223636D01*
X102996535Y-115261323D01*
X103001000Y-115306661D01*
X103001000Y-116143339D01*
X102996535Y-116188677D01*
X102985102Y-116226364D01*
X102966534Y-116261103D01*
X102941548Y-116291548D01*
X102911103Y-116316534D01*
X102876364Y-116335102D01*
X102838677Y-116346535D01*
X102793339Y-116351000D01*
X101706661Y-116351000D01*
X101661323Y-116346535D01*
X101623636Y-116335102D01*
X101588897Y-116316534D01*
X101558452Y-116291548D01*
X101533466Y-116261103D01*
X101514898Y-116226364D01*
X101503465Y-116188677D01*
X101499000Y-116143339D01*
X101499000Y-115306661D01*
X101503465Y-115261323D01*
X101514898Y-115223636D01*
X101533466Y-115188897D01*
X101558452Y-115158452D01*
X101588897Y-115133466D01*
X101623636Y-115114898D01*
X101661323Y-115103465D01*
X101706661Y-115099000D01*
X102793339Y-115099000D01*
X102838677Y-115103465D01*
X102838677Y-115103465D01*
G37*
G36*
X111276000Y-115486000D02*
X109624000Y-115486000D01*
X109624000Y-114784000D01*
X111276000Y-114784000D01*
X111276000Y-115486000D01*
X111276000Y-115486000D01*
G37*
G36*
X105876000Y-115486000D02*
X104224000Y-115486000D01*
X104224000Y-114784000D01*
X105876000Y-114784000D01*
X105876000Y-115486000D01*
X105876000Y-115486000D01*
G37*
G36*
X117088677Y-113853465D02*
X117126364Y-113864898D01*
X117161103Y-113883466D01*
X117191548Y-113908452D01*
X117216534Y-113938897D01*
X117235102Y-113973636D01*
X117246535Y-114011323D01*
X117251000Y-114056661D01*
X117251000Y-114893339D01*
X117246535Y-114938677D01*
X117235102Y-114976364D01*
X117216534Y-115011103D01*
X117191548Y-115041548D01*
X117161103Y-115066534D01*
X117126364Y-115085102D01*
X117088677Y-115096535D01*
X117043339Y-115101000D01*
X115956661Y-115101000D01*
X115911323Y-115096535D01*
X115873636Y-115085102D01*
X115838897Y-115066534D01*
X115808452Y-115041548D01*
X115783466Y-115011103D01*
X115764898Y-114976364D01*
X115753465Y-114938677D01*
X115749000Y-114893339D01*
X115749000Y-114056661D01*
X115753465Y-114011323D01*
X115764898Y-113973636D01*
X115783466Y-113938897D01*
X115808452Y-113908452D01*
X115838897Y-113883466D01*
X115873636Y-113864898D01*
X115911323Y-113853465D01*
X115956661Y-113849000D01*
X117043339Y-113849000D01*
X117088677Y-113853465D01*
X117088677Y-113853465D01*
G37*
G36*
X114838677Y-113853465D02*
X114876364Y-113864898D01*
X114911103Y-113883466D01*
X114941548Y-113908452D01*
X114966534Y-113938897D01*
X114985102Y-113973636D01*
X114996535Y-114011323D01*
X115001000Y-114056661D01*
X115001000Y-114893339D01*
X114996535Y-114938677D01*
X114985102Y-114976364D01*
X114966534Y-115011103D01*
X114941548Y-115041548D01*
X114911103Y-115066534D01*
X114876364Y-115085102D01*
X114838677Y-115096535D01*
X114793339Y-115101000D01*
X113706661Y-115101000D01*
X113661323Y-115096535D01*
X113623636Y-115085102D01*
X113588897Y-115066534D01*
X113558452Y-115041548D01*
X113533466Y-115011103D01*
X113514898Y-114976364D01*
X113503465Y-114938677D01*
X113499000Y-114893339D01*
X113499000Y-114056661D01*
X113503465Y-114011323D01*
X113514898Y-113973636D01*
X113533466Y-113938897D01*
X113558452Y-113908452D01*
X113588897Y-113883466D01*
X113623636Y-113864898D01*
X113661323Y-113853465D01*
X113706661Y-113849000D01*
X114793339Y-113849000D01*
X114838677Y-113853465D01*
X114838677Y-113853465D01*
G37*
G36*
X128610442Y-113145518D02*
X128676627Y-113152037D01*
X128789853Y-113186384D01*
X128846467Y-113203557D01*
X128985087Y-113277652D01*
X129002991Y-113287222D01*
X129038729Y-113316552D01*
X129140186Y-113399814D01*
X129196422Y-113468339D01*
X129252778Y-113537009D01*
X129252779Y-113537011D01*
X129336443Y-113693533D01*
X129336443Y-113693534D01*
X129387963Y-113863373D01*
X129405359Y-114040000D01*
X129387963Y-114216627D01*
X129364799Y-114292989D01*
X129336443Y-114386467D01*
X129313075Y-114430185D01*
X129252778Y-114542991D01*
X129223448Y-114578729D01*
X129140186Y-114680186D01*
X129058502Y-114747221D01*
X129002991Y-114792778D01*
X129002989Y-114792779D01*
X128846467Y-114876443D01*
X128790767Y-114893339D01*
X128676627Y-114927963D01*
X128625657Y-114932983D01*
X128544260Y-114941000D01*
X128455740Y-114941000D01*
X128374343Y-114932983D01*
X128323373Y-114927963D01*
X128209233Y-114893339D01*
X128153533Y-114876443D01*
X127997011Y-114792779D01*
X127997009Y-114792778D01*
X127941498Y-114747221D01*
X127859814Y-114680186D01*
X127776552Y-114578729D01*
X127747222Y-114542991D01*
X127686925Y-114430185D01*
X127663557Y-114386467D01*
X127635201Y-114292989D01*
X127612037Y-114216627D01*
X127594641Y-114040000D01*
X127612037Y-113863373D01*
X127663557Y-113693534D01*
X127663557Y-113693533D01*
X127747221Y-113537011D01*
X127747222Y-113537009D01*
X127803578Y-113468339D01*
X127859814Y-113399814D01*
X127961271Y-113316552D01*
X127997009Y-113287222D01*
X128014913Y-113277652D01*
X128153533Y-113203557D01*
X128210147Y-113186384D01*
X128323373Y-113152037D01*
X128389558Y-113145518D01*
X128455740Y-113139000D01*
X128544260Y-113139000D01*
X128610442Y-113145518D01*
X128610442Y-113145518D01*
G37*
G36*
X88360442Y-112895518D02*
X88426627Y-112902037D01*
X88539853Y-112936384D01*
X88596467Y-112953557D01*
X88732677Y-113026364D01*
X88752991Y-113037222D01*
X88782090Y-113061103D01*
X88890186Y-113149814D01*
X88973448Y-113251271D01*
X89002778Y-113287009D01*
X89002779Y-113287011D01*
X89086443Y-113443533D01*
X89086443Y-113443534D01*
X89137963Y-113613373D01*
X89155359Y-113790000D01*
X89137963Y-113966627D01*
X89107189Y-114068075D01*
X89086443Y-114136467D01*
X89043931Y-114216000D01*
X89002778Y-114292991D01*
X88973448Y-114328729D01*
X88890186Y-114430186D01*
X88788729Y-114513448D01*
X88752991Y-114542778D01*
X88735087Y-114552348D01*
X88596467Y-114626443D01*
X88539853Y-114643616D01*
X88426627Y-114677963D01*
X88360442Y-114684482D01*
X88294260Y-114691000D01*
X88205740Y-114691000D01*
X88139558Y-114684482D01*
X88073373Y-114677963D01*
X87960147Y-114643616D01*
X87903533Y-114626443D01*
X87764913Y-114552348D01*
X87747009Y-114542778D01*
X87711271Y-114513448D01*
X87609814Y-114430186D01*
X87526552Y-114328729D01*
X87497222Y-114292991D01*
X87456069Y-114216000D01*
X87413557Y-114136467D01*
X87392811Y-114068075D01*
X87362037Y-113966627D01*
X87344641Y-113790000D01*
X87362037Y-113613373D01*
X87413557Y-113443534D01*
X87413557Y-113443533D01*
X87497221Y-113287011D01*
X87497222Y-113287009D01*
X87526552Y-113251271D01*
X87609814Y-113149814D01*
X87717910Y-113061103D01*
X87747009Y-113037222D01*
X87767323Y-113026364D01*
X87903533Y-112953557D01*
X87960147Y-112936384D01*
X88073373Y-112902037D01*
X88139558Y-112895518D01*
X88205740Y-112889000D01*
X88294260Y-112889000D01*
X88360442Y-112895518D01*
X88360442Y-112895518D01*
G37*
G36*
X111276000Y-114216000D02*
X109624000Y-114216000D01*
X109624000Y-113514000D01*
X111276000Y-113514000D01*
X111276000Y-114216000D01*
X111276000Y-114216000D01*
G37*
G36*
X105876000Y-114216000D02*
X104224000Y-114216000D01*
X104224000Y-113514000D01*
X105876000Y-113514000D01*
X105876000Y-114216000D01*
X105876000Y-114216000D01*
G37*
G36*
X97588677Y-112428465D02*
X97626364Y-112439898D01*
X97661103Y-112458466D01*
X97691548Y-112483452D01*
X97716534Y-112513897D01*
X97735102Y-112548636D01*
X97746535Y-112586323D01*
X97751000Y-112631661D01*
X97751000Y-113468339D01*
X97746535Y-113513677D01*
X97735102Y-113551364D01*
X97716534Y-113586103D01*
X97691548Y-113616548D01*
X97661103Y-113641534D01*
X97626364Y-113660102D01*
X97588677Y-113671535D01*
X97543339Y-113676000D01*
X96456661Y-113676000D01*
X96411323Y-113671535D01*
X96373636Y-113660102D01*
X96338897Y-113641534D01*
X96308452Y-113616548D01*
X96283466Y-113586103D01*
X96264898Y-113551364D01*
X96253465Y-113513677D01*
X96249000Y-113468339D01*
X96249000Y-112631661D01*
X96253465Y-112586323D01*
X96264898Y-112548636D01*
X96283466Y-112513897D01*
X96308452Y-112483452D01*
X96338897Y-112458466D01*
X96373636Y-112439898D01*
X96411323Y-112428465D01*
X96456661Y-112424000D01*
X97543339Y-112424000D01*
X97588677Y-112428465D01*
X97588677Y-112428465D01*
G37*
G36*
X117088677Y-111903465D02*
X117126364Y-111914898D01*
X117161103Y-111933466D01*
X117191548Y-111958452D01*
X117216534Y-111988897D01*
X117235102Y-112023636D01*
X117246535Y-112061323D01*
X117251000Y-112106661D01*
X117251000Y-112943339D01*
X117246535Y-112988677D01*
X117235102Y-113026364D01*
X117216534Y-113061103D01*
X117191548Y-113091548D01*
X117161103Y-113116534D01*
X117126364Y-113135102D01*
X117088677Y-113146535D01*
X117043339Y-113151000D01*
X115956661Y-113151000D01*
X115911323Y-113146535D01*
X115873636Y-113135102D01*
X115838897Y-113116534D01*
X115808452Y-113091548D01*
X115783466Y-113061103D01*
X115764898Y-113026364D01*
X115753465Y-112988677D01*
X115749000Y-112943339D01*
X115749000Y-112106661D01*
X115753465Y-112061323D01*
X115764898Y-112023636D01*
X115783466Y-111988897D01*
X115808452Y-111958452D01*
X115838897Y-111933466D01*
X115873636Y-111914898D01*
X115911323Y-111903465D01*
X115956661Y-111899000D01*
X117043339Y-111899000D01*
X117088677Y-111903465D01*
X117088677Y-111903465D01*
G37*
G36*
X105876000Y-112946000D02*
X104224000Y-112946000D01*
X104224000Y-112244000D01*
X105876000Y-112244000D01*
X105876000Y-112946000D01*
X105876000Y-112946000D01*
G37*
G36*
X111276000Y-112946000D02*
X109624000Y-112946000D01*
X109624000Y-112244000D01*
X111276000Y-112244000D01*
X111276000Y-112946000D01*
X111276000Y-112946000D01*
G37*
G36*
X129401000Y-112401000D02*
X127599000Y-112401000D01*
X127599000Y-110599000D01*
X129401000Y-110599000D01*
X129401000Y-112401000D01*
X129401000Y-112401000D01*
G37*
G36*
X124690443Y-110605519D02*
X124756627Y-110612037D01*
X124869159Y-110646173D01*
X124926467Y-110663557D01*
X125028461Y-110718075D01*
X125082991Y-110747222D01*
X125112175Y-110771173D01*
X125220186Y-110859814D01*
X125280233Y-110932983D01*
X125332778Y-110997009D01*
X125332779Y-110997011D01*
X125416443Y-111153533D01*
X125416443Y-111153534D01*
X125467963Y-111323373D01*
X125485359Y-111500000D01*
X125467963Y-111676627D01*
X125452128Y-111728827D01*
X125416443Y-111846467D01*
X125381894Y-111911103D01*
X125332778Y-112002991D01*
X125318850Y-112019962D01*
X125220186Y-112140186D01*
X125118729Y-112223448D01*
X125082991Y-112252778D01*
X125082989Y-112252779D01*
X124926467Y-112336443D01*
X124869853Y-112353616D01*
X124756627Y-112387963D01*
X124690443Y-112394481D01*
X124624260Y-112401000D01*
X124535740Y-112401000D01*
X124469557Y-112394481D01*
X124403373Y-112387963D01*
X124290147Y-112353616D01*
X124233533Y-112336443D01*
X124077011Y-112252779D01*
X124077009Y-112252778D01*
X124041271Y-112223448D01*
X123939814Y-112140186D01*
X123841150Y-112019962D01*
X123827222Y-112002991D01*
X123778106Y-111911103D01*
X123743557Y-111846467D01*
X123707872Y-111728827D01*
X123692037Y-111676627D01*
X123674641Y-111500000D01*
X123692037Y-111323373D01*
X123743557Y-111153534D01*
X123743557Y-111153533D01*
X123827221Y-110997011D01*
X123827222Y-110997009D01*
X123879767Y-110932983D01*
X123939814Y-110859814D01*
X124047825Y-110771173D01*
X124077009Y-110747222D01*
X124131539Y-110718075D01*
X124233533Y-110663557D01*
X124290841Y-110646173D01*
X124403373Y-110612037D01*
X124469557Y-110605519D01*
X124535740Y-110599000D01*
X124624260Y-110599000D01*
X124690443Y-110605519D01*
X124690443Y-110605519D01*
G37*
G36*
X122150443Y-110605519D02*
X122216627Y-110612037D01*
X122329159Y-110646173D01*
X122386467Y-110663557D01*
X122488461Y-110718075D01*
X122542991Y-110747222D01*
X122572175Y-110771173D01*
X122680186Y-110859814D01*
X122740233Y-110932983D01*
X122792778Y-110997009D01*
X122792779Y-110997011D01*
X122876443Y-111153533D01*
X122876443Y-111153534D01*
X122927963Y-111323373D01*
X122945359Y-111500000D01*
X122927963Y-111676627D01*
X122912128Y-111728827D01*
X122876443Y-111846467D01*
X122841894Y-111911103D01*
X122792778Y-112002991D01*
X122778850Y-112019962D01*
X122680186Y-112140186D01*
X122578729Y-112223448D01*
X122542991Y-112252778D01*
X122542989Y-112252779D01*
X122386467Y-112336443D01*
X122329853Y-112353616D01*
X122216627Y-112387963D01*
X122150443Y-112394481D01*
X122084260Y-112401000D01*
X121995740Y-112401000D01*
X121929557Y-112394481D01*
X121863373Y-112387963D01*
X121750147Y-112353616D01*
X121693533Y-112336443D01*
X121537011Y-112252779D01*
X121537009Y-112252778D01*
X121501271Y-112223448D01*
X121399814Y-112140186D01*
X121301150Y-112019962D01*
X121287222Y-112002991D01*
X121238106Y-111911103D01*
X121203557Y-111846467D01*
X121167872Y-111728827D01*
X121152037Y-111676627D01*
X121134641Y-111500000D01*
X121152037Y-111323373D01*
X121203557Y-111153534D01*
X121203557Y-111153533D01*
X121287221Y-110997011D01*
X121287222Y-110997009D01*
X121339767Y-110932983D01*
X121399814Y-110859814D01*
X121507825Y-110771173D01*
X121537009Y-110747222D01*
X121591539Y-110718075D01*
X121693533Y-110663557D01*
X121750841Y-110646173D01*
X121863373Y-110612037D01*
X121929557Y-110605519D01*
X121995740Y-110599000D01*
X122084260Y-110599000D01*
X122150443Y-110605519D01*
X122150443Y-110605519D01*
G37*
G36*
X120401000Y-112401000D02*
X118599000Y-112401000D01*
X118599000Y-110599000D01*
X120401000Y-110599000D01*
X120401000Y-112401000D01*
X120401000Y-112401000D01*
G37*
G36*
X88360443Y-110355519D02*
X88426627Y-110362037D01*
X88534362Y-110394718D01*
X88596467Y-110413557D01*
X88690645Y-110463897D01*
X88752991Y-110497222D01*
X88761530Y-110504230D01*
X88890186Y-110609814D01*
X88969665Y-110706661D01*
X89002778Y-110747009D01*
X89002779Y-110747011D01*
X89086443Y-110903533D01*
X89103616Y-110960147D01*
X89137963Y-111073373D01*
X89155359Y-111250000D01*
X89137963Y-111426627D01*
X89115292Y-111501364D01*
X89086443Y-111596467D01*
X89070657Y-111626000D01*
X89002778Y-111752991D01*
X88979032Y-111781925D01*
X88890186Y-111890186D01*
X88811049Y-111955131D01*
X88752991Y-112002778D01*
X88735087Y-112012348D01*
X88596467Y-112086443D01*
X88539853Y-112103616D01*
X88426627Y-112137963D01*
X88360442Y-112144482D01*
X88294260Y-112151000D01*
X88205740Y-112151000D01*
X88139558Y-112144482D01*
X88073373Y-112137963D01*
X87960147Y-112103616D01*
X87903533Y-112086443D01*
X87764913Y-112012348D01*
X87747009Y-112002778D01*
X87688951Y-111955131D01*
X87609814Y-111890186D01*
X87520968Y-111781925D01*
X87497222Y-111752991D01*
X87429343Y-111626000D01*
X87413557Y-111596467D01*
X87384708Y-111501364D01*
X87362037Y-111426627D01*
X87344641Y-111250000D01*
X87362037Y-111073373D01*
X87396384Y-110960147D01*
X87413557Y-110903533D01*
X87497221Y-110747011D01*
X87497222Y-110747009D01*
X87530335Y-110706661D01*
X87609814Y-110609814D01*
X87738470Y-110504230D01*
X87747009Y-110497222D01*
X87809355Y-110463897D01*
X87903533Y-110413557D01*
X87965638Y-110394718D01*
X88073373Y-110362037D01*
X88139557Y-110355519D01*
X88205740Y-110349000D01*
X88294260Y-110349000D01*
X88360443Y-110355519D01*
X88360443Y-110355519D01*
G37*
G36*
X99913677Y-110503465D02*
X99951364Y-110514898D01*
X99986103Y-110533466D01*
X100016548Y-110558452D01*
X100041534Y-110588897D01*
X100060102Y-110623636D01*
X100071535Y-110661323D01*
X100076000Y-110706661D01*
X100076000Y-111793339D01*
X100071535Y-111838677D01*
X100060102Y-111876364D01*
X100041534Y-111911103D01*
X100016548Y-111941548D01*
X99986103Y-111966534D01*
X99951364Y-111985102D01*
X99913677Y-111996535D01*
X99868339Y-112001000D01*
X99031661Y-112001000D01*
X98986323Y-111996535D01*
X98948636Y-111985102D01*
X98913897Y-111966534D01*
X98883452Y-111941548D01*
X98858466Y-111911103D01*
X98839898Y-111876364D01*
X98828465Y-111838677D01*
X98824000Y-111793339D01*
X98824000Y-110706661D01*
X98828465Y-110661323D01*
X98839898Y-110623636D01*
X98858466Y-110588897D01*
X98883452Y-110558452D01*
X98913897Y-110533466D01*
X98948636Y-110514898D01*
X98986323Y-110503465D01*
X99031661Y-110499000D01*
X99868339Y-110499000D01*
X99913677Y-110503465D01*
X99913677Y-110503465D01*
G37*
G36*
X101963677Y-110503465D02*
X102001364Y-110514898D01*
X102036103Y-110533466D01*
X102066548Y-110558452D01*
X102091534Y-110588897D01*
X102110102Y-110623636D01*
X102121535Y-110661323D01*
X102126000Y-110706661D01*
X102126000Y-111793339D01*
X102121535Y-111838677D01*
X102110102Y-111876364D01*
X102091534Y-111911103D01*
X102066548Y-111941548D01*
X102036103Y-111966534D01*
X102001364Y-111985102D01*
X101963677Y-111996535D01*
X101918339Y-112001000D01*
X101081661Y-112001000D01*
X101036323Y-111996535D01*
X100998636Y-111985102D01*
X100963897Y-111966534D01*
X100933452Y-111941548D01*
X100908466Y-111911103D01*
X100889898Y-111876364D01*
X100878465Y-111838677D01*
X100874000Y-111793339D01*
X100874000Y-110706661D01*
X100878465Y-110661323D01*
X100889898Y-110623636D01*
X100908466Y-110588897D01*
X100933452Y-110558452D01*
X100963897Y-110533466D01*
X100998636Y-110514898D01*
X101036323Y-110503465D01*
X101081661Y-110499000D01*
X101918339Y-110499000D01*
X101963677Y-110503465D01*
X101963677Y-110503465D01*
G37*
G36*
X97588677Y-110378465D02*
X97626364Y-110389898D01*
X97661103Y-110408466D01*
X97691548Y-110433452D01*
X97716534Y-110463897D01*
X97735102Y-110498636D01*
X97746535Y-110536323D01*
X97751000Y-110581661D01*
X97751000Y-111418339D01*
X97746535Y-111463677D01*
X97735102Y-111501364D01*
X97716534Y-111536103D01*
X97691548Y-111566548D01*
X97661103Y-111591534D01*
X97626364Y-111610102D01*
X97588677Y-111621535D01*
X97543339Y-111626000D01*
X96456661Y-111626000D01*
X96411323Y-111621535D01*
X96373636Y-111610102D01*
X96338897Y-111591534D01*
X96308452Y-111566548D01*
X96283466Y-111536103D01*
X96264898Y-111501364D01*
X96253465Y-111463677D01*
X96249000Y-111418339D01*
X96249000Y-110581661D01*
X96253465Y-110536323D01*
X96264898Y-110498636D01*
X96283466Y-110463897D01*
X96308452Y-110433452D01*
X96338897Y-110408466D01*
X96373636Y-110389898D01*
X96411323Y-110378465D01*
X96456661Y-110374000D01*
X97543339Y-110374000D01*
X97588677Y-110378465D01*
X97588677Y-110378465D01*
G37*
G36*
X117088677Y-109853465D02*
X117126364Y-109864898D01*
X117161103Y-109883466D01*
X117191548Y-109908452D01*
X117216534Y-109938897D01*
X117235102Y-109973636D01*
X117246535Y-110011323D01*
X117251000Y-110056661D01*
X117251000Y-110893339D01*
X117246535Y-110938677D01*
X117235102Y-110976364D01*
X117216534Y-111011103D01*
X117191548Y-111041548D01*
X117161103Y-111066534D01*
X117126364Y-111085102D01*
X117088677Y-111096535D01*
X117043339Y-111101000D01*
X115956661Y-111101000D01*
X115911323Y-111096535D01*
X115873636Y-111085102D01*
X115838897Y-111066534D01*
X115808452Y-111041548D01*
X115783466Y-111011103D01*
X115764898Y-110976364D01*
X115753465Y-110938677D01*
X115749000Y-110893339D01*
X115749000Y-110056661D01*
X115753465Y-110011323D01*
X115764898Y-109973636D01*
X115783466Y-109938897D01*
X115808452Y-109908452D01*
X115838897Y-109883466D01*
X115873636Y-109864898D01*
X115911323Y-109853465D01*
X115956661Y-109849000D01*
X117043339Y-109849000D01*
X117088677Y-109853465D01*
X117088677Y-109853465D01*
G37*
G36*
X97588677Y-108428465D02*
X97626364Y-108439898D01*
X97661103Y-108458466D01*
X97691548Y-108483452D01*
X97716534Y-108513897D01*
X97735102Y-108548636D01*
X97746535Y-108586323D01*
X97751000Y-108631661D01*
X97751000Y-109468339D01*
X97746535Y-109513677D01*
X97735102Y-109551364D01*
X97716534Y-109586103D01*
X97691548Y-109616548D01*
X97661103Y-109641534D01*
X97626364Y-109660102D01*
X97588677Y-109671535D01*
X97543339Y-109676000D01*
X96456661Y-109676000D01*
X96411323Y-109671535D01*
X96373636Y-109660102D01*
X96338897Y-109641534D01*
X96308452Y-109616548D01*
X96283466Y-109586103D01*
X96264898Y-109551364D01*
X96253465Y-109513677D01*
X96249000Y-109468339D01*
X96249000Y-108631661D01*
X96253465Y-108586323D01*
X96264898Y-108548636D01*
X96283466Y-108513897D01*
X96308452Y-108483452D01*
X96338897Y-108458466D01*
X96373636Y-108439898D01*
X96411323Y-108428465D01*
X96456661Y-108424000D01*
X97543339Y-108424000D01*
X97588677Y-108428465D01*
X97588677Y-108428465D01*
G37*
G36*
X89151000Y-109611000D02*
X87349000Y-109611000D01*
X87349000Y-107809000D01*
X89151000Y-107809000D01*
X89151000Y-109611000D01*
X89151000Y-109611000D01*
G37*
G36*
X99938677Y-108003465D02*
X99976364Y-108014898D01*
X100011103Y-108033466D01*
X100041548Y-108058452D01*
X100066534Y-108088897D01*
X100085102Y-108123636D01*
X100096535Y-108161323D01*
X100101000Y-108206661D01*
X100101000Y-109293339D01*
X100096535Y-109338677D01*
X100085102Y-109376364D01*
X100066534Y-109411103D01*
X100041548Y-109441548D01*
X100011103Y-109466534D01*
X99976364Y-109485102D01*
X99938677Y-109496535D01*
X99893339Y-109501000D01*
X99056661Y-109501000D01*
X99011323Y-109496535D01*
X98973636Y-109485102D01*
X98938897Y-109466534D01*
X98908452Y-109441548D01*
X98883466Y-109411103D01*
X98864898Y-109376364D01*
X98853465Y-109338677D01*
X98849000Y-109293339D01*
X98849000Y-108206661D01*
X98853465Y-108161323D01*
X98864898Y-108123636D01*
X98883466Y-108088897D01*
X98908452Y-108058452D01*
X98938897Y-108033466D01*
X98973636Y-108014898D01*
X99011323Y-108003465D01*
X99056661Y-107999000D01*
X99893339Y-107999000D01*
X99938677Y-108003465D01*
X99938677Y-108003465D01*
G37*
G36*
X101988677Y-108003465D02*
X102026364Y-108014898D01*
X102061103Y-108033466D01*
X102091548Y-108058452D01*
X102116534Y-108088897D01*
X102135102Y-108123636D01*
X102146535Y-108161323D01*
X102151000Y-108206661D01*
X102151000Y-109293339D01*
X102146535Y-109338677D01*
X102135102Y-109376364D01*
X102116534Y-109411103D01*
X102091548Y-109441548D01*
X102061103Y-109466534D01*
X102026364Y-109485102D01*
X101988677Y-109496535D01*
X101943339Y-109501000D01*
X101106661Y-109501000D01*
X101061323Y-109496535D01*
X101023636Y-109485102D01*
X100988897Y-109466534D01*
X100958452Y-109441548D01*
X100933466Y-109411103D01*
X100914898Y-109376364D01*
X100903465Y-109338677D01*
X100899000Y-109293339D01*
X100899000Y-108206661D01*
X100903465Y-108161323D01*
X100914898Y-108123636D01*
X100933466Y-108088897D01*
X100958452Y-108058452D01*
X100988897Y-108033466D01*
X101023636Y-108014898D01*
X101061323Y-108003465D01*
X101106661Y-107999000D01*
X101943339Y-107999000D01*
X101988677Y-108003465D01*
X101988677Y-108003465D01*
G37*
G36*
X97588677Y-106378465D02*
X97626364Y-106389898D01*
X97661103Y-106408466D01*
X97691548Y-106433452D01*
X97716534Y-106463897D01*
X97735102Y-106498636D01*
X97746535Y-106536323D01*
X97751000Y-106581661D01*
X97751000Y-107418339D01*
X97746535Y-107463677D01*
X97735102Y-107501364D01*
X97716534Y-107536103D01*
X97691548Y-107566548D01*
X97661103Y-107591534D01*
X97626364Y-107610102D01*
X97588677Y-107621535D01*
X97543339Y-107626000D01*
X96456661Y-107626000D01*
X96411323Y-107621535D01*
X96373636Y-107610102D01*
X96338897Y-107591534D01*
X96308452Y-107566548D01*
X96283466Y-107536103D01*
X96264898Y-107501364D01*
X96253465Y-107463677D01*
X96249000Y-107418339D01*
X96249000Y-106581661D01*
X96253465Y-106536323D01*
X96264898Y-106498636D01*
X96283466Y-106463897D01*
X96308452Y-106433452D01*
X96338897Y-106408466D01*
X96373636Y-106389898D01*
X96411323Y-106378465D01*
X96456661Y-106374000D01*
X97543339Y-106374000D01*
X97588677Y-106378465D01*
X97588677Y-106378465D01*
G37*
G36*
X128610443Y-105435519D02*
X128676627Y-105442037D01*
X128789853Y-105476384D01*
X128846467Y-105493557D01*
X128985087Y-105567652D01*
X129002991Y-105577222D01*
X129026441Y-105596467D01*
X129140186Y-105689814D01*
X129208976Y-105773636D01*
X129252778Y-105827009D01*
X129252779Y-105827011D01*
X129336443Y-105983533D01*
X129336443Y-105983534D01*
X129387963Y-106153373D01*
X129405359Y-106330000D01*
X129387963Y-106506627D01*
X129365202Y-106581661D01*
X129336443Y-106676467D01*
X129283046Y-106776364D01*
X129252778Y-106832991D01*
X129245755Y-106841548D01*
X129140186Y-106970186D01*
X129038729Y-107053448D01*
X129002991Y-107082778D01*
X129002989Y-107082779D01*
X128846467Y-107166443D01*
X128789853Y-107183616D01*
X128676627Y-107217963D01*
X128610443Y-107224481D01*
X128544260Y-107231000D01*
X128455740Y-107231000D01*
X128389557Y-107224481D01*
X128323373Y-107217963D01*
X128210147Y-107183616D01*
X128153533Y-107166443D01*
X127997011Y-107082779D01*
X127997009Y-107082778D01*
X127961271Y-107053448D01*
X127859814Y-106970186D01*
X127754245Y-106841548D01*
X127747222Y-106832991D01*
X127716954Y-106776364D01*
X127663557Y-106676467D01*
X127634798Y-106581661D01*
X127612037Y-106506627D01*
X127594641Y-106330000D01*
X127612037Y-106153373D01*
X127663557Y-105983534D01*
X127663557Y-105983533D01*
X127747221Y-105827011D01*
X127747222Y-105827009D01*
X127791024Y-105773636D01*
X127859814Y-105689814D01*
X127973559Y-105596467D01*
X127997009Y-105577222D01*
X128014913Y-105567652D01*
X128153533Y-105493557D01*
X128210147Y-105476384D01*
X128323373Y-105442037D01*
X128389558Y-105435518D01*
X128455740Y-105429000D01*
X128544260Y-105429000D01*
X128610443Y-105435519D01*
X128610443Y-105435519D01*
G37*
G36*
X109788677Y-105753465D02*
X109826364Y-105764898D01*
X109861103Y-105783466D01*
X109891548Y-105808452D01*
X109916534Y-105838897D01*
X109935102Y-105873636D01*
X109946535Y-105911323D01*
X109951000Y-105956661D01*
X109951000Y-106793339D01*
X109946535Y-106838677D01*
X109935102Y-106876364D01*
X109916534Y-106911103D01*
X109891548Y-106941548D01*
X109861103Y-106966534D01*
X109826364Y-106985102D01*
X109788677Y-106996535D01*
X109743339Y-107001000D01*
X108656661Y-107001000D01*
X108611323Y-106996535D01*
X108573636Y-106985102D01*
X108538897Y-106966534D01*
X108508452Y-106941548D01*
X108483466Y-106911103D01*
X108464898Y-106876364D01*
X108453465Y-106838677D01*
X108449000Y-106793339D01*
X108449000Y-105956661D01*
X108453465Y-105911323D01*
X108464898Y-105873636D01*
X108483466Y-105838897D01*
X108508452Y-105808452D01*
X108538897Y-105783466D01*
X108573636Y-105764898D01*
X108611323Y-105753465D01*
X108656661Y-105749000D01*
X109743339Y-105749000D01*
X109788677Y-105753465D01*
X109788677Y-105753465D01*
G37*
G36*
X114838677Y-105653465D02*
X114876364Y-105664898D01*
X114911103Y-105683466D01*
X114941548Y-105708452D01*
X114966534Y-105738897D01*
X114985102Y-105773636D01*
X114996535Y-105811323D01*
X115001000Y-105856661D01*
X115001000Y-106693339D01*
X114996535Y-106738677D01*
X114985102Y-106776364D01*
X114966534Y-106811103D01*
X114941548Y-106841548D01*
X114911103Y-106866534D01*
X114876364Y-106885102D01*
X114838677Y-106896535D01*
X114793339Y-106901000D01*
X113706661Y-106901000D01*
X113661323Y-106896535D01*
X113623636Y-106885102D01*
X113588897Y-106866534D01*
X113558452Y-106841548D01*
X113533466Y-106811103D01*
X113514898Y-106776364D01*
X113503465Y-106738677D01*
X113499000Y-106693339D01*
X113499000Y-105856661D01*
X113503465Y-105811323D01*
X113514898Y-105773636D01*
X113533466Y-105738897D01*
X113558452Y-105708452D01*
X113588897Y-105683466D01*
X113623636Y-105664898D01*
X113661323Y-105653465D01*
X113706661Y-105649000D01*
X114793339Y-105649000D01*
X114838677Y-105653465D01*
X114838677Y-105653465D01*
G37*
G36*
X117088677Y-105653465D02*
X117126364Y-105664898D01*
X117161103Y-105683466D01*
X117191548Y-105708452D01*
X117216534Y-105738897D01*
X117235102Y-105773636D01*
X117246535Y-105811323D01*
X117251000Y-105856661D01*
X117251000Y-106693339D01*
X117246535Y-106738677D01*
X117235102Y-106776364D01*
X117216534Y-106811103D01*
X117191548Y-106841548D01*
X117161103Y-106866534D01*
X117126364Y-106885102D01*
X117088677Y-106896535D01*
X117043339Y-106901000D01*
X115956661Y-106901000D01*
X115911323Y-106896535D01*
X115873636Y-106885102D01*
X115838897Y-106866534D01*
X115808452Y-106841548D01*
X115783466Y-106811103D01*
X115764898Y-106776364D01*
X115753465Y-106738677D01*
X115749000Y-106693339D01*
X115749000Y-105856661D01*
X115753465Y-105811323D01*
X115764898Y-105773636D01*
X115783466Y-105738897D01*
X115808452Y-105708452D01*
X115838897Y-105683466D01*
X115873636Y-105664898D01*
X115911323Y-105653465D01*
X115956661Y-105649000D01*
X117043339Y-105649000D01*
X117088677Y-105653465D01*
X117088677Y-105653465D01*
G37*
G36*
X120401000Y-106151000D02*
X118599000Y-106151000D01*
X118599000Y-104349000D01*
X120401000Y-104349000D01*
X120401000Y-106151000D01*
X120401000Y-106151000D01*
G37*
G36*
X124690443Y-104355519D02*
X124756627Y-104362037D01*
X124849422Y-104390186D01*
X124926467Y-104413557D01*
X125065087Y-104487652D01*
X125082991Y-104497222D01*
X125089762Y-104502779D01*
X125220186Y-104609814D01*
X125303448Y-104711271D01*
X125332778Y-104747009D01*
X125332779Y-104747011D01*
X125416443Y-104903533D01*
X125424557Y-104930282D01*
X125467963Y-105073373D01*
X125485359Y-105250000D01*
X125467963Y-105426627D01*
X125467243Y-105429000D01*
X125416443Y-105596467D01*
X125379865Y-105664898D01*
X125332778Y-105752991D01*
X125331761Y-105754230D01*
X125220186Y-105890186D01*
X125118729Y-105973448D01*
X125082991Y-106002778D01*
X125082989Y-106002779D01*
X124926467Y-106086443D01*
X124869853Y-106103616D01*
X124756627Y-106137963D01*
X124690443Y-106144481D01*
X124624260Y-106151000D01*
X124535740Y-106151000D01*
X124469557Y-106144481D01*
X124403373Y-106137963D01*
X124290147Y-106103616D01*
X124233533Y-106086443D01*
X124077011Y-106002779D01*
X124077009Y-106002778D01*
X124041271Y-105973448D01*
X123939814Y-105890186D01*
X123828239Y-105754230D01*
X123827222Y-105752991D01*
X123780135Y-105664898D01*
X123743557Y-105596467D01*
X123692757Y-105429000D01*
X123692037Y-105426627D01*
X123674641Y-105250000D01*
X123692037Y-105073373D01*
X123735443Y-104930282D01*
X123743557Y-104903533D01*
X123827221Y-104747011D01*
X123827222Y-104747009D01*
X123856552Y-104711271D01*
X123939814Y-104609814D01*
X124070238Y-104502779D01*
X124077009Y-104497222D01*
X124094913Y-104487652D01*
X124233533Y-104413557D01*
X124310578Y-104390186D01*
X124403373Y-104362037D01*
X124469557Y-104355519D01*
X124535740Y-104349000D01*
X124624260Y-104349000D01*
X124690443Y-104355519D01*
X124690443Y-104355519D01*
G37*
G36*
X122150443Y-104355519D02*
X122216627Y-104362037D01*
X122309422Y-104390186D01*
X122386467Y-104413557D01*
X122525087Y-104487652D01*
X122542991Y-104497222D01*
X122549762Y-104502779D01*
X122680186Y-104609814D01*
X122763448Y-104711271D01*
X122792778Y-104747009D01*
X122792779Y-104747011D01*
X122876443Y-104903533D01*
X122884557Y-104930282D01*
X122927963Y-105073373D01*
X122945359Y-105250000D01*
X122927963Y-105426627D01*
X122927243Y-105429000D01*
X122876443Y-105596467D01*
X122839865Y-105664898D01*
X122792778Y-105752991D01*
X122791761Y-105754230D01*
X122680186Y-105890186D01*
X122578729Y-105973448D01*
X122542991Y-106002778D01*
X122542989Y-106002779D01*
X122386467Y-106086443D01*
X122329853Y-106103616D01*
X122216627Y-106137963D01*
X122150443Y-106144481D01*
X122084260Y-106151000D01*
X121995740Y-106151000D01*
X121929557Y-106144481D01*
X121863373Y-106137963D01*
X121750147Y-106103616D01*
X121693533Y-106086443D01*
X121537011Y-106002779D01*
X121537009Y-106002778D01*
X121501271Y-105973448D01*
X121399814Y-105890186D01*
X121288239Y-105754230D01*
X121287222Y-105752991D01*
X121240135Y-105664898D01*
X121203557Y-105596467D01*
X121152757Y-105429000D01*
X121152037Y-105426627D01*
X121134641Y-105250000D01*
X121152037Y-105073373D01*
X121195443Y-104930282D01*
X121203557Y-104903533D01*
X121287221Y-104747011D01*
X121287222Y-104747009D01*
X121316552Y-104711271D01*
X121399814Y-104609814D01*
X121530238Y-104502779D01*
X121537009Y-104497222D01*
X121554913Y-104487652D01*
X121693533Y-104413557D01*
X121770578Y-104390186D01*
X121863373Y-104362037D01*
X121929557Y-104355519D01*
X121995740Y-104349000D01*
X122084260Y-104349000D01*
X122150443Y-104355519D01*
X122150443Y-104355519D01*
G37*
G36*
X109788677Y-103703465D02*
X109826364Y-103714898D01*
X109861103Y-103733466D01*
X109891548Y-103758452D01*
X109916534Y-103788897D01*
X109935102Y-103823636D01*
X109946535Y-103861323D01*
X109951000Y-103906661D01*
X109951000Y-104743339D01*
X109946535Y-104788677D01*
X109935102Y-104826364D01*
X109916534Y-104861103D01*
X109891548Y-104891548D01*
X109861103Y-104916534D01*
X109826364Y-104935102D01*
X109788677Y-104946535D01*
X109743339Y-104951000D01*
X108656661Y-104951000D01*
X108611323Y-104946535D01*
X108573636Y-104935102D01*
X108538897Y-104916534D01*
X108508452Y-104891548D01*
X108483466Y-104861103D01*
X108464898Y-104826364D01*
X108453465Y-104788677D01*
X108449000Y-104743339D01*
X108449000Y-103906661D01*
X108453465Y-103861323D01*
X108464898Y-103823636D01*
X108483466Y-103788897D01*
X108508452Y-103758452D01*
X108538897Y-103733466D01*
X108573636Y-103714898D01*
X108611323Y-103703465D01*
X108656661Y-103699000D01*
X109743339Y-103699000D01*
X109788677Y-103703465D01*
X109788677Y-103703465D01*
G37*
G36*
X114838677Y-103603465D02*
X114876364Y-103614898D01*
X114911103Y-103633466D01*
X114941548Y-103658452D01*
X114966534Y-103688897D01*
X114985102Y-103723636D01*
X114996535Y-103761323D01*
X115001000Y-103806661D01*
X115001000Y-104643339D01*
X114996535Y-104688677D01*
X114985102Y-104726364D01*
X114966534Y-104761103D01*
X114941548Y-104791548D01*
X114911103Y-104816534D01*
X114876364Y-104835102D01*
X114838677Y-104846535D01*
X114793339Y-104851000D01*
X113706661Y-104851000D01*
X113661323Y-104846535D01*
X113623636Y-104835102D01*
X113588897Y-104816534D01*
X113558452Y-104791548D01*
X113533466Y-104761103D01*
X113514898Y-104726364D01*
X113503465Y-104688677D01*
X113499000Y-104643339D01*
X113499000Y-103806661D01*
X113503465Y-103761323D01*
X113514898Y-103723636D01*
X113533466Y-103688897D01*
X113558452Y-103658452D01*
X113588897Y-103633466D01*
X113623636Y-103614898D01*
X113661323Y-103603465D01*
X113706661Y-103599000D01*
X114793339Y-103599000D01*
X114838677Y-103603465D01*
X114838677Y-103603465D01*
G37*
G36*
X117088677Y-103603465D02*
X117126364Y-103614898D01*
X117161103Y-103633466D01*
X117191548Y-103658452D01*
X117216534Y-103688897D01*
X117235102Y-103723636D01*
X117246535Y-103761323D01*
X117251000Y-103806661D01*
X117251000Y-104643339D01*
X117246535Y-104688677D01*
X117235102Y-104726364D01*
X117216534Y-104761103D01*
X117191548Y-104791548D01*
X117161103Y-104816534D01*
X117126364Y-104835102D01*
X117088677Y-104846535D01*
X117043339Y-104851000D01*
X115956661Y-104851000D01*
X115911323Y-104846535D01*
X115873636Y-104835102D01*
X115838897Y-104816534D01*
X115808452Y-104791548D01*
X115783466Y-104761103D01*
X115764898Y-104726364D01*
X115753465Y-104688677D01*
X115749000Y-104643339D01*
X115749000Y-103806661D01*
X115753465Y-103761323D01*
X115764898Y-103723636D01*
X115783466Y-103688897D01*
X115808452Y-103658452D01*
X115838897Y-103633466D01*
X115873636Y-103614898D01*
X115911323Y-103603465D01*
X115956661Y-103599000D01*
X117043339Y-103599000D01*
X117088677Y-103603465D01*
X117088677Y-103603465D01*
G37*
G36*
X128610443Y-102895519D02*
X128676627Y-102902037D01*
X128789853Y-102936384D01*
X128846467Y-102953557D01*
X128923755Y-102994869D01*
X129002991Y-103037222D01*
X129038729Y-103066552D01*
X129140186Y-103149814D01*
X129219951Y-103247009D01*
X129252778Y-103287009D01*
X129252779Y-103287011D01*
X129336443Y-103443533D01*
X129336443Y-103443534D01*
X129387963Y-103613373D01*
X129405359Y-103790000D01*
X129387963Y-103966627D01*
X129353616Y-104079853D01*
X129336443Y-104136467D01*
X129285419Y-104231925D01*
X129252778Y-104292991D01*
X129225389Y-104326364D01*
X129140186Y-104430186D01*
X129058502Y-104497221D01*
X129002991Y-104542778D01*
X129002989Y-104542779D01*
X128846467Y-104626443D01*
X128808490Y-104637963D01*
X128676627Y-104677963D01*
X128625657Y-104682983D01*
X128544260Y-104691000D01*
X128455740Y-104691000D01*
X128374343Y-104682983D01*
X128323373Y-104677963D01*
X128191510Y-104637963D01*
X128153533Y-104626443D01*
X127997011Y-104542779D01*
X127997009Y-104542778D01*
X127941498Y-104497221D01*
X127859814Y-104430186D01*
X127774611Y-104326364D01*
X127747222Y-104292991D01*
X127714581Y-104231925D01*
X127663557Y-104136467D01*
X127646384Y-104079853D01*
X127612037Y-103966627D01*
X127594641Y-103790000D01*
X127612037Y-103613373D01*
X127663557Y-103443534D01*
X127663557Y-103443533D01*
X127747221Y-103287011D01*
X127747222Y-103287009D01*
X127780049Y-103247009D01*
X127859814Y-103149814D01*
X127961271Y-103066552D01*
X127997009Y-103037222D01*
X128076245Y-102994869D01*
X128153533Y-102953557D01*
X128210147Y-102936384D01*
X128323373Y-102902037D01*
X128389558Y-102895518D01*
X128455740Y-102889000D01*
X128544260Y-102889000D01*
X128610443Y-102895519D01*
X128610443Y-102895519D01*
G37*
G36*
X88356508Y-102855131D02*
X88426627Y-102862037D01*
X88502662Y-102885102D01*
X88596467Y-102913557D01*
X88692518Y-102964898D01*
X88752991Y-102997222D01*
X88788729Y-103026552D01*
X88890186Y-103109814D01*
X88973448Y-103211271D01*
X89002778Y-103247009D01*
X89002779Y-103247011D01*
X89086443Y-103403533D01*
X89086443Y-103403534D01*
X89137963Y-103573373D01*
X89155359Y-103750000D01*
X89137963Y-103926627D01*
X89125829Y-103966627D01*
X89086443Y-104096467D01*
X89065062Y-104136467D01*
X89002778Y-104252991D01*
X88978164Y-104282983D01*
X88890186Y-104390186D01*
X88788729Y-104473448D01*
X88752991Y-104502778D01*
X88752989Y-104502779D01*
X88596467Y-104586443D01*
X88539853Y-104603616D01*
X88426627Y-104637963D01*
X88360442Y-104644482D01*
X88294260Y-104651000D01*
X88205740Y-104651000D01*
X88139557Y-104644481D01*
X88073373Y-104637963D01*
X87960147Y-104603616D01*
X87903533Y-104586443D01*
X87747011Y-104502779D01*
X87747009Y-104502778D01*
X87711271Y-104473448D01*
X87609814Y-104390186D01*
X87521836Y-104282983D01*
X87497222Y-104252991D01*
X87434938Y-104136467D01*
X87413557Y-104096467D01*
X87374171Y-103966627D01*
X87362037Y-103926627D01*
X87344641Y-103750000D01*
X87362037Y-103573373D01*
X87413557Y-103403534D01*
X87413557Y-103403533D01*
X87497221Y-103247011D01*
X87497222Y-103247009D01*
X87526552Y-103211271D01*
X87609814Y-103109814D01*
X87711271Y-103026552D01*
X87747009Y-102997222D01*
X87807482Y-102964898D01*
X87903533Y-102913557D01*
X87997338Y-102885102D01*
X88073373Y-102862037D01*
X88143492Y-102855131D01*
X88205740Y-102849000D01*
X88294260Y-102849000D01*
X88356508Y-102855131D01*
X88356508Y-102855131D01*
G37*
G36*
X97188677Y-102953465D02*
X97226364Y-102964898D01*
X97261103Y-102983466D01*
X97291548Y-103008452D01*
X97316534Y-103038897D01*
X97335102Y-103073636D01*
X97346535Y-103111323D01*
X97351000Y-103156661D01*
X97351000Y-104243339D01*
X97346535Y-104288677D01*
X97335102Y-104326364D01*
X97316534Y-104361103D01*
X97291548Y-104391548D01*
X97261103Y-104416534D01*
X97226364Y-104435102D01*
X97188677Y-104446535D01*
X97143339Y-104451000D01*
X96306661Y-104451000D01*
X96261323Y-104446535D01*
X96223636Y-104435102D01*
X96188897Y-104416534D01*
X96158452Y-104391548D01*
X96133466Y-104361103D01*
X96114898Y-104326364D01*
X96103465Y-104288677D01*
X96099000Y-104243339D01*
X96099000Y-103156661D01*
X96103465Y-103111323D01*
X96114898Y-103073636D01*
X96133466Y-103038897D01*
X96158452Y-103008452D01*
X96188897Y-102983466D01*
X96223636Y-102964898D01*
X96261323Y-102953465D01*
X96306661Y-102949000D01*
X97143339Y-102949000D01*
X97188677Y-102953465D01*
X97188677Y-102953465D01*
G37*
G36*
X99238677Y-102953465D02*
X99276364Y-102964898D01*
X99311103Y-102983466D01*
X99341548Y-103008452D01*
X99366534Y-103038897D01*
X99385102Y-103073636D01*
X99396535Y-103111323D01*
X99401000Y-103156661D01*
X99401000Y-104243339D01*
X99396535Y-104288677D01*
X99385102Y-104326364D01*
X99366534Y-104361103D01*
X99341548Y-104391548D01*
X99311103Y-104416534D01*
X99276364Y-104435102D01*
X99238677Y-104446535D01*
X99193339Y-104451000D01*
X98356661Y-104451000D01*
X98311323Y-104446535D01*
X98273636Y-104435102D01*
X98238897Y-104416534D01*
X98208452Y-104391548D01*
X98183466Y-104361103D01*
X98164898Y-104326364D01*
X98153465Y-104288677D01*
X98149000Y-104243339D01*
X98149000Y-103156661D01*
X98153465Y-103111323D01*
X98164898Y-103073636D01*
X98183466Y-103038897D01*
X98208452Y-103008452D01*
X98238897Y-102983466D01*
X98273636Y-102964898D01*
X98311323Y-102953465D01*
X98356661Y-102949000D01*
X99193339Y-102949000D01*
X99238677Y-102953465D01*
X99238677Y-102953465D01*
G37*
G36*
X117088677Y-101653465D02*
X117126364Y-101664898D01*
X117161103Y-101683466D01*
X117191548Y-101708452D01*
X117216534Y-101738897D01*
X117235102Y-101773636D01*
X117246535Y-101811323D01*
X117251000Y-101856661D01*
X117251000Y-102693339D01*
X117246535Y-102738677D01*
X117235102Y-102776364D01*
X117216534Y-102811103D01*
X117191548Y-102841548D01*
X117161103Y-102866534D01*
X117126364Y-102885102D01*
X117088677Y-102896535D01*
X117043339Y-102901000D01*
X115956661Y-102901000D01*
X115911323Y-102896535D01*
X115873636Y-102885102D01*
X115838897Y-102866534D01*
X115808452Y-102841548D01*
X115783466Y-102811103D01*
X115764898Y-102776364D01*
X115753465Y-102738677D01*
X115749000Y-102693339D01*
X115749000Y-101856661D01*
X115753465Y-101811323D01*
X115764898Y-101773636D01*
X115783466Y-101738897D01*
X115808452Y-101708452D01*
X115838897Y-101683466D01*
X115873636Y-101664898D01*
X115911323Y-101653465D01*
X115956661Y-101649000D01*
X117043339Y-101649000D01*
X117088677Y-101653465D01*
X117088677Y-101653465D01*
G37*
G36*
X97188677Y-100828465D02*
X97226364Y-100839898D01*
X97261103Y-100858466D01*
X97291548Y-100883452D01*
X97316534Y-100913897D01*
X97335102Y-100948636D01*
X97346535Y-100986323D01*
X97351000Y-101031661D01*
X97351000Y-102118339D01*
X97346535Y-102163677D01*
X97335102Y-102201364D01*
X97316534Y-102236103D01*
X97291548Y-102266548D01*
X97261103Y-102291534D01*
X97226364Y-102310102D01*
X97188677Y-102321535D01*
X97143339Y-102326000D01*
X96306661Y-102326000D01*
X96261323Y-102321535D01*
X96223636Y-102310102D01*
X96188897Y-102291534D01*
X96158452Y-102266548D01*
X96133466Y-102236103D01*
X96114898Y-102201364D01*
X96103465Y-102163677D01*
X96099000Y-102118339D01*
X96099000Y-101031661D01*
X96103465Y-100986323D01*
X96114898Y-100948636D01*
X96133466Y-100913897D01*
X96158452Y-100883452D01*
X96188897Y-100858466D01*
X96223636Y-100839898D01*
X96261323Y-100828465D01*
X96306661Y-100824000D01*
X97143339Y-100824000D01*
X97188677Y-100828465D01*
X97188677Y-100828465D01*
G37*
G36*
X99238677Y-100828465D02*
X99276364Y-100839898D01*
X99311103Y-100858466D01*
X99341548Y-100883452D01*
X99366534Y-100913897D01*
X99385102Y-100948636D01*
X99396535Y-100986323D01*
X99401000Y-101031661D01*
X99401000Y-102118339D01*
X99396535Y-102163677D01*
X99385102Y-102201364D01*
X99366534Y-102236103D01*
X99341548Y-102266548D01*
X99311103Y-102291534D01*
X99276364Y-102310102D01*
X99238677Y-102321535D01*
X99193339Y-102326000D01*
X98356661Y-102326000D01*
X98311323Y-102321535D01*
X98273636Y-102310102D01*
X98238897Y-102291534D01*
X98208452Y-102266548D01*
X98183466Y-102236103D01*
X98164898Y-102201364D01*
X98153465Y-102163677D01*
X98149000Y-102118339D01*
X98149000Y-101031661D01*
X98153465Y-100986323D01*
X98164898Y-100948636D01*
X98183466Y-100913897D01*
X98208452Y-100883452D01*
X98238897Y-100858466D01*
X98273636Y-100839898D01*
X98311323Y-100828465D01*
X98356661Y-100824000D01*
X99193339Y-100824000D01*
X99238677Y-100828465D01*
X99238677Y-100828465D01*
G37*
G36*
X124690442Y-100355518D02*
X124756627Y-100362037D01*
X124869853Y-100396384D01*
X124926467Y-100413557D01*
X125065087Y-100487652D01*
X125082991Y-100497222D01*
X125118729Y-100526552D01*
X125220186Y-100609814D01*
X125280233Y-100682983D01*
X125332778Y-100747009D01*
X125332779Y-100747011D01*
X125416443Y-100903533D01*
X125422541Y-100923636D01*
X125467963Y-101073373D01*
X125485359Y-101250000D01*
X125467963Y-101426627D01*
X125433616Y-101539853D01*
X125416443Y-101596467D01*
X125379865Y-101664898D01*
X125332778Y-101752991D01*
X125318850Y-101769962D01*
X125220186Y-101890186D01*
X125133772Y-101961103D01*
X125082991Y-102002778D01*
X125082989Y-102002779D01*
X124926467Y-102086443D01*
X124869853Y-102103616D01*
X124756627Y-102137963D01*
X124690442Y-102144482D01*
X124624260Y-102151000D01*
X124535740Y-102151000D01*
X124469558Y-102144482D01*
X124403373Y-102137963D01*
X124290147Y-102103616D01*
X124233533Y-102086443D01*
X124077011Y-102002779D01*
X124077009Y-102002778D01*
X124026228Y-101961103D01*
X123939814Y-101890186D01*
X123841150Y-101769962D01*
X123827222Y-101752991D01*
X123780135Y-101664898D01*
X123743557Y-101596467D01*
X123726384Y-101539853D01*
X123692037Y-101426627D01*
X123674641Y-101250000D01*
X123692037Y-101073373D01*
X123737459Y-100923636D01*
X123743557Y-100903533D01*
X123827221Y-100747011D01*
X123827222Y-100747009D01*
X123879767Y-100682983D01*
X123939814Y-100609814D01*
X124041271Y-100526552D01*
X124077009Y-100497222D01*
X124094913Y-100487652D01*
X124233533Y-100413557D01*
X124290147Y-100396384D01*
X124403373Y-100362037D01*
X124469558Y-100355518D01*
X124535740Y-100349000D01*
X124624260Y-100349000D01*
X124690442Y-100355518D01*
X124690442Y-100355518D01*
G37*
G36*
X122150442Y-100355518D02*
X122216627Y-100362037D01*
X122329853Y-100396384D01*
X122386467Y-100413557D01*
X122525087Y-100487652D01*
X122542991Y-100497222D01*
X122578729Y-100526552D01*
X122680186Y-100609814D01*
X122740233Y-100682983D01*
X122792778Y-100747009D01*
X122792779Y-100747011D01*
X122876443Y-100903533D01*
X122882541Y-100923636D01*
X122927963Y-101073373D01*
X122945359Y-101250000D01*
X122927963Y-101426627D01*
X122893616Y-101539853D01*
X122876443Y-101596467D01*
X122839865Y-101664898D01*
X122792778Y-101752991D01*
X122778850Y-101769962D01*
X122680186Y-101890186D01*
X122593772Y-101961103D01*
X122542991Y-102002778D01*
X122542989Y-102002779D01*
X122386467Y-102086443D01*
X122329853Y-102103616D01*
X122216627Y-102137963D01*
X122150442Y-102144482D01*
X122084260Y-102151000D01*
X121995740Y-102151000D01*
X121929558Y-102144482D01*
X121863373Y-102137963D01*
X121750147Y-102103616D01*
X121693533Y-102086443D01*
X121537011Y-102002779D01*
X121537009Y-102002778D01*
X121486228Y-101961103D01*
X121399814Y-101890186D01*
X121301150Y-101769962D01*
X121287222Y-101752991D01*
X121240135Y-101664898D01*
X121203557Y-101596467D01*
X121186384Y-101539853D01*
X121152037Y-101426627D01*
X121134641Y-101250000D01*
X121152037Y-101073373D01*
X121197459Y-100923636D01*
X121203557Y-100903533D01*
X121287221Y-100747011D01*
X121287222Y-100747009D01*
X121339767Y-100682983D01*
X121399814Y-100609814D01*
X121501271Y-100526552D01*
X121537009Y-100497222D01*
X121554913Y-100487652D01*
X121693533Y-100413557D01*
X121750147Y-100396384D01*
X121863373Y-100362037D01*
X121929558Y-100355518D01*
X121995740Y-100349000D01*
X122084260Y-100349000D01*
X122150442Y-100355518D01*
X122150442Y-100355518D01*
G37*
G36*
X120401000Y-102151000D02*
X118599000Y-102151000D01*
X118599000Y-100349000D01*
X120401000Y-100349000D01*
X120401000Y-102151000D01*
X120401000Y-102151000D01*
G37*
G36*
X129401000Y-102151000D02*
X127599000Y-102151000D01*
X127599000Y-100349000D01*
X129401000Y-100349000D01*
X129401000Y-102151000D01*
X129401000Y-102151000D01*
G37*
G36*
X89151000Y-102111000D02*
X87349000Y-102111000D01*
X87349000Y-100309000D01*
X89151000Y-100309000D01*
X89151000Y-102111000D01*
X89151000Y-102111000D01*
G37*
G36*
X113888677Y-100803465D02*
X113926364Y-100814898D01*
X113961103Y-100833466D01*
X113991548Y-100858452D01*
X114016534Y-100888897D01*
X114035102Y-100923636D01*
X114046535Y-100961323D01*
X114051000Y-101006661D01*
X114051000Y-101843339D01*
X114046535Y-101888677D01*
X114035102Y-101926364D01*
X114016534Y-101961103D01*
X113991548Y-101991548D01*
X113961103Y-102016534D01*
X113926364Y-102035102D01*
X113888677Y-102046535D01*
X113843339Y-102051000D01*
X112756661Y-102051000D01*
X112711323Y-102046535D01*
X112673636Y-102035102D01*
X112638897Y-102016534D01*
X112608452Y-101991548D01*
X112583466Y-101961103D01*
X112564898Y-101926364D01*
X112553465Y-101888677D01*
X112549000Y-101843339D01*
X112549000Y-101006661D01*
X112553465Y-100961323D01*
X112564898Y-100923636D01*
X112583466Y-100888897D01*
X112608452Y-100858452D01*
X112638897Y-100833466D01*
X112673636Y-100814898D01*
X112711323Y-100803465D01*
X112756661Y-100799000D01*
X113843339Y-100799000D01*
X113888677Y-100803465D01*
X113888677Y-100803465D01*
G37*
G36*
X109826000Y-101801000D02*
X103974000Y-101801000D01*
X103974000Y-100399000D01*
X109826000Y-100399000D01*
X109826000Y-101801000D01*
X109826000Y-101801000D01*
G37*
G36*
X117088677Y-99603465D02*
X117126364Y-99614898D01*
X117161103Y-99633466D01*
X117191548Y-99658452D01*
X117216534Y-99688897D01*
X117235102Y-99723636D01*
X117246535Y-99761323D01*
X117251000Y-99806661D01*
X117251000Y-100643339D01*
X117246535Y-100688677D01*
X117235102Y-100726364D01*
X117216534Y-100761103D01*
X117191548Y-100791548D01*
X117161103Y-100816534D01*
X117126364Y-100835102D01*
X117088677Y-100846535D01*
X117043339Y-100851000D01*
X115956661Y-100851000D01*
X115911323Y-100846535D01*
X115873636Y-100835102D01*
X115838897Y-100816534D01*
X115808452Y-100791548D01*
X115783466Y-100761103D01*
X115764898Y-100726364D01*
X115753465Y-100688677D01*
X115749000Y-100643339D01*
X115749000Y-99806661D01*
X115753465Y-99761323D01*
X115764898Y-99723636D01*
X115783466Y-99688897D01*
X115808452Y-99658452D01*
X115838897Y-99633466D01*
X115873636Y-99614898D01*
X115911323Y-99603465D01*
X115956661Y-99599000D01*
X117043339Y-99599000D01*
X117088677Y-99603465D01*
X117088677Y-99603465D01*
G37*
G36*
X97951000Y-100201000D02*
X94049000Y-100201000D01*
X94049000Y-98099000D01*
X97951000Y-98099000D01*
X97951000Y-100201000D01*
X97951000Y-100201000D01*
G37*
G36*
X113888677Y-98753465D02*
X113926364Y-98764898D01*
X113961103Y-98783466D01*
X113991548Y-98808452D01*
X114016534Y-98838897D01*
X114035102Y-98873636D01*
X114046535Y-98911323D01*
X114051000Y-98956661D01*
X114051000Y-99793339D01*
X114046535Y-99838677D01*
X114035102Y-99876364D01*
X114016534Y-99911103D01*
X113991548Y-99941548D01*
X113961103Y-99966534D01*
X113926364Y-99985102D01*
X113888677Y-99996535D01*
X113843339Y-100001000D01*
X112756661Y-100001000D01*
X112711323Y-99996535D01*
X112673636Y-99985102D01*
X112638897Y-99966534D01*
X112608452Y-99941548D01*
X112583466Y-99911103D01*
X112564898Y-99876364D01*
X112553465Y-99838677D01*
X112549000Y-99793339D01*
X112549000Y-98956661D01*
X112553465Y-98911323D01*
X112564898Y-98873636D01*
X112583466Y-98838897D01*
X112608452Y-98808452D01*
X112638897Y-98783466D01*
X112673636Y-98764898D01*
X112711323Y-98753465D01*
X112756661Y-98749000D01*
X113843339Y-98749000D01*
X113888677Y-98753465D01*
X113888677Y-98753465D01*
G37*
G36*
X111951000Y-99676000D02*
X110549000Y-99676000D01*
X110549000Y-93824000D01*
X111951000Y-93824000D01*
X111951000Y-99676000D01*
X111951000Y-99676000D01*
G37*
G36*
X103251000Y-99676000D02*
X101849000Y-99676000D01*
X101849000Y-93824000D01*
X103251000Y-93824000D01*
X103251000Y-99676000D01*
X103251000Y-99676000D01*
G37*
G36*
X114088677Y-95528465D02*
X114126364Y-95539898D01*
X114161103Y-95558466D01*
X114191548Y-95583452D01*
X114216534Y-95613897D01*
X114235102Y-95648636D01*
X114246535Y-95686323D01*
X114251000Y-95731661D01*
X114251000Y-96568339D01*
X114246535Y-96613677D01*
X114235102Y-96651364D01*
X114216534Y-96686103D01*
X114191548Y-96716548D01*
X114161103Y-96741534D01*
X114126364Y-96760102D01*
X114088677Y-96771535D01*
X114043339Y-96776000D01*
X112956661Y-96776000D01*
X112911323Y-96771535D01*
X112873636Y-96760102D01*
X112838897Y-96741534D01*
X112808452Y-96716548D01*
X112783466Y-96686103D01*
X112764898Y-96651364D01*
X112753465Y-96613677D01*
X112749000Y-96568339D01*
X112749000Y-95731661D01*
X112753465Y-95686323D01*
X112764898Y-95648636D01*
X112783466Y-95613897D01*
X112808452Y-95583452D01*
X112838897Y-95558466D01*
X112873636Y-95539898D01*
X112911323Y-95528465D01*
X112956661Y-95524000D01*
X114043339Y-95524000D01*
X114088677Y-95528465D01*
X114088677Y-95528465D01*
G37*
G36*
X88837938Y-92883875D02*
X88981579Y-92912447D01*
X89194037Y-93000450D01*
X89240634Y-93019751D01*
X89282042Y-93036903D01*
X89539079Y-93208650D01*
X89552454Y-93217587D01*
X89782413Y-93447546D01*
X89782415Y-93447549D01*
X89963097Y-93717958D01*
X90087553Y-94018421D01*
X90090350Y-94032483D01*
X90151000Y-94337389D01*
X90151000Y-94662611D01*
X90137148Y-94732249D01*
X90087553Y-94981579D01*
X89963097Y-95282042D01*
X89875534Y-95413089D01*
X89782413Y-95552454D01*
X89552454Y-95782413D01*
X89552451Y-95782415D01*
X89282042Y-95963097D01*
X88981579Y-96087553D01*
X88875256Y-96108702D01*
X88662611Y-96151000D01*
X88337389Y-96151000D01*
X88124744Y-96108702D01*
X88018421Y-96087553D01*
X87717958Y-95963097D01*
X87447549Y-95782415D01*
X87447546Y-95782413D01*
X87217587Y-95552454D01*
X87124466Y-95413089D01*
X87036903Y-95282042D01*
X86912447Y-94981579D01*
X86862852Y-94732249D01*
X86849000Y-94662611D01*
X86849000Y-94337389D01*
X86909650Y-94032483D01*
X86912447Y-94018421D01*
X87036903Y-93717958D01*
X87217585Y-93447549D01*
X87217587Y-93447546D01*
X87447546Y-93217587D01*
X87460921Y-93208650D01*
X87717958Y-93036903D01*
X87759367Y-93019751D01*
X87805963Y-93000450D01*
X88018421Y-92912447D01*
X88162062Y-92883875D01*
X88337389Y-92849000D01*
X88662611Y-92849000D01*
X88837938Y-92883875D01*
X88837938Y-92883875D01*
G37*
G36*
X133087938Y-92883875D02*
X133231579Y-92912447D01*
X133444037Y-93000450D01*
X133490634Y-93019751D01*
X133532042Y-93036903D01*
X133789079Y-93208650D01*
X133802454Y-93217587D01*
X134032413Y-93447546D01*
X134032415Y-93447549D01*
X134213097Y-93717958D01*
X134337553Y-94018421D01*
X134340350Y-94032483D01*
X134401000Y-94337389D01*
X134401000Y-94662611D01*
X134387148Y-94732249D01*
X134337553Y-94981579D01*
X134213097Y-95282042D01*
X134125534Y-95413089D01*
X134032413Y-95552454D01*
X133802454Y-95782413D01*
X133802451Y-95782415D01*
X133532042Y-95963097D01*
X133231579Y-96087553D01*
X133125256Y-96108702D01*
X132912611Y-96151000D01*
X132587389Y-96151000D01*
X132374744Y-96108702D01*
X132268421Y-96087553D01*
X131967958Y-95963097D01*
X131697549Y-95782415D01*
X131697546Y-95782413D01*
X131467587Y-95552454D01*
X131374466Y-95413089D01*
X131286903Y-95282042D01*
X131162447Y-94981579D01*
X131112852Y-94732249D01*
X131099000Y-94662611D01*
X131099000Y-94337389D01*
X131159650Y-94032483D01*
X131162447Y-94018421D01*
X131286903Y-93717958D01*
X131467585Y-93447549D01*
X131467587Y-93447546D01*
X131697546Y-93217587D01*
X131710921Y-93208650D01*
X131967958Y-93036903D01*
X132009367Y-93019751D01*
X132055963Y-93000450D01*
X132268421Y-92912447D01*
X132412062Y-92883875D01*
X132587389Y-92849000D01*
X132912611Y-92849000D01*
X133087938Y-92883875D01*
X133087938Y-92883875D01*
G37*
G36*
X123709350Y-94874694D02*
X123808770Y-94915875D01*
X123898249Y-94975663D01*
X123974337Y-95051751D01*
X124034125Y-95141230D01*
X124075306Y-95240650D01*
X124096300Y-95346194D01*
X124096300Y-95453806D01*
X124075306Y-95559350D01*
X124034125Y-95658770D01*
X123974337Y-95748249D01*
X123898249Y-95824337D01*
X123808770Y-95884125D01*
X123709350Y-95925306D01*
X123603806Y-95946300D01*
X123496194Y-95946300D01*
X123390650Y-95925306D01*
X123291230Y-95884125D01*
X123201751Y-95824337D01*
X123125663Y-95748249D01*
X123065875Y-95658770D01*
X123024694Y-95559350D01*
X123003700Y-95453806D01*
X123003700Y-95346194D01*
X123024694Y-95240650D01*
X123065875Y-95141230D01*
X123125663Y-95051751D01*
X123201751Y-94975663D01*
X123291230Y-94915875D01*
X123390650Y-94874694D01*
X123496194Y-94853700D01*
X123603806Y-94853700D01*
X123709350Y-94874694D01*
X123709350Y-94874694D01*
G37*
G36*
X117329714Y-94591389D02*
X117410644Y-94624911D01*
X117483483Y-94673581D01*
X117545419Y-94735517D01*
X117594089Y-94808356D01*
X117627611Y-94889286D01*
X117644700Y-94975199D01*
X117644700Y-95062801D01*
X117627611Y-95148714D01*
X117594089Y-95229644D01*
X117545419Y-95302483D01*
X117483483Y-95364419D01*
X117410644Y-95413089D01*
X117329714Y-95446611D01*
X117243801Y-95463700D01*
X117156199Y-95463700D01*
X117070286Y-95446611D01*
X116989356Y-95413089D01*
X116916517Y-95364419D01*
X116854581Y-95302483D01*
X116805911Y-95229644D01*
X116772389Y-95148714D01*
X116755300Y-95062801D01*
X116755300Y-94975199D01*
X116772389Y-94889286D01*
X116805911Y-94808356D01*
X116854581Y-94735517D01*
X116916517Y-94673581D01*
X116989356Y-94624911D01*
X117070286Y-94591389D01*
X117156199Y-94574300D01*
X117243801Y-94574300D01*
X117329714Y-94591389D01*
X117329714Y-94591389D01*
G37*
G36*
X121139714Y-94591389D02*
X121220644Y-94624911D01*
X121293483Y-94673581D01*
X121355419Y-94735517D01*
X121404089Y-94808356D01*
X121437611Y-94889286D01*
X121454700Y-94975199D01*
X121454700Y-95062801D01*
X121437611Y-95148714D01*
X121404089Y-95229644D01*
X121355419Y-95302483D01*
X121293483Y-95364419D01*
X121220644Y-95413089D01*
X121139714Y-95446611D01*
X121053801Y-95463700D01*
X120966199Y-95463700D01*
X120880286Y-95446611D01*
X120799356Y-95413089D01*
X120726517Y-95364419D01*
X120664581Y-95302483D01*
X120615911Y-95229644D01*
X120582389Y-95148714D01*
X120565300Y-95062801D01*
X120565300Y-94975199D01*
X120582389Y-94889286D01*
X120615911Y-94808356D01*
X120664581Y-94735517D01*
X120726517Y-94673581D01*
X120799356Y-94624911D01*
X120880286Y-94591389D01*
X120966199Y-94574300D01*
X121053801Y-94574300D01*
X121139714Y-94591389D01*
X121139714Y-94591389D01*
G37*
G36*
X119869714Y-94591389D02*
X119950644Y-94624911D01*
X120023483Y-94673581D01*
X120085419Y-94735517D01*
X120134089Y-94808356D01*
X120167611Y-94889286D01*
X120184700Y-94975199D01*
X120184700Y-95062801D01*
X120167611Y-95148714D01*
X120134089Y-95229644D01*
X120085419Y-95302483D01*
X120023483Y-95364419D01*
X119950644Y-95413089D01*
X119869714Y-95446611D01*
X119783801Y-95463700D01*
X119696199Y-95463700D01*
X119610286Y-95446611D01*
X119529356Y-95413089D01*
X119456517Y-95364419D01*
X119394581Y-95302483D01*
X119345911Y-95229644D01*
X119312389Y-95148714D01*
X119295300Y-95062801D01*
X119295300Y-94975199D01*
X119312389Y-94889286D01*
X119345911Y-94808356D01*
X119394581Y-94735517D01*
X119456517Y-94673581D01*
X119529356Y-94624911D01*
X119610286Y-94591389D01*
X119696199Y-94574300D01*
X119783801Y-94574300D01*
X119869714Y-94591389D01*
X119869714Y-94591389D01*
G37*
G36*
X118599714Y-94591389D02*
X118680644Y-94624911D01*
X118753483Y-94673581D01*
X118815419Y-94735517D01*
X118864089Y-94808356D01*
X118897611Y-94889286D01*
X118914700Y-94975199D01*
X118914700Y-95062801D01*
X118897611Y-95148714D01*
X118864089Y-95229644D01*
X118815419Y-95302483D01*
X118753483Y-95364419D01*
X118680644Y-95413089D01*
X118599714Y-95446611D01*
X118513801Y-95463700D01*
X118426199Y-95463700D01*
X118340286Y-95446611D01*
X118259356Y-95413089D01*
X118186517Y-95364419D01*
X118124581Y-95302483D01*
X118075911Y-95229644D01*
X118042389Y-95148714D01*
X118025300Y-95062801D01*
X118025300Y-94975199D01*
X118042389Y-94889286D01*
X118075911Y-94808356D01*
X118124581Y-94735517D01*
X118186517Y-94673581D01*
X118259356Y-94624911D01*
X118340286Y-94591389D01*
X118426199Y-94574300D01*
X118513801Y-94574300D01*
X118599714Y-94591389D01*
X118599714Y-94591389D01*
G37*
G36*
X122409714Y-94591389D02*
X122490644Y-94624911D01*
X122563483Y-94673581D01*
X122625419Y-94735517D01*
X122674089Y-94808356D01*
X122707611Y-94889286D01*
X122724700Y-94975199D01*
X122724700Y-95062801D01*
X122707611Y-95148714D01*
X122674089Y-95229644D01*
X122625419Y-95302483D01*
X122563483Y-95364419D01*
X122490644Y-95413089D01*
X122409714Y-95446611D01*
X122323801Y-95463700D01*
X122236199Y-95463700D01*
X122150286Y-95446611D01*
X122069356Y-95413089D01*
X121996517Y-95364419D01*
X121934581Y-95302483D01*
X121885911Y-95229644D01*
X121852389Y-95148714D01*
X121835300Y-95062801D01*
X121835300Y-94975199D01*
X121852389Y-94889286D01*
X121885911Y-94808356D01*
X121934581Y-94735517D01*
X121996517Y-94673581D01*
X122069356Y-94624911D01*
X122150286Y-94591389D01*
X122236199Y-94574300D01*
X122323801Y-94574300D01*
X122409714Y-94591389D01*
X122409714Y-94591389D01*
G37*
G36*
X116089350Y-93858694D02*
X116188770Y-93899875D01*
X116278249Y-93959663D01*
X116354337Y-94035751D01*
X116414125Y-94125230D01*
X116455306Y-94224650D01*
X116476300Y-94330194D01*
X116476300Y-94437806D01*
X116455306Y-94543350D01*
X116414125Y-94642770D01*
X116354337Y-94732249D01*
X116278249Y-94808337D01*
X116188770Y-94868125D01*
X116089350Y-94909306D01*
X115983806Y-94930300D01*
X115876194Y-94930300D01*
X115770650Y-94909306D01*
X115671230Y-94868125D01*
X115581751Y-94808337D01*
X115505663Y-94732249D01*
X115445875Y-94642770D01*
X115404694Y-94543350D01*
X115383700Y-94437806D01*
X115383700Y-94330194D01*
X115404694Y-94224650D01*
X115445875Y-94125230D01*
X115505663Y-94035751D01*
X115581751Y-93959663D01*
X115671230Y-93899875D01*
X115770650Y-93858694D01*
X115876194Y-93837700D01*
X115983806Y-93837700D01*
X116089350Y-93858694D01*
X116089350Y-93858694D01*
G37*
G36*
X114088677Y-93478465D02*
X114126364Y-93489898D01*
X114161103Y-93508466D01*
X114191548Y-93533452D01*
X114216534Y-93563897D01*
X114235102Y-93598636D01*
X114246535Y-93636323D01*
X114251000Y-93681661D01*
X114251000Y-94518339D01*
X114246535Y-94563677D01*
X114235102Y-94601364D01*
X114216534Y-94636103D01*
X114191548Y-94666548D01*
X114161103Y-94691534D01*
X114126364Y-94710102D01*
X114088677Y-94721535D01*
X114043339Y-94726000D01*
X112956661Y-94726000D01*
X112911323Y-94721535D01*
X112873636Y-94710102D01*
X112838897Y-94691534D01*
X112808452Y-94666548D01*
X112783466Y-94636103D01*
X112764898Y-94601364D01*
X112753465Y-94563677D01*
X112749000Y-94518339D01*
X112749000Y-93681661D01*
X112753465Y-93636323D01*
X112764898Y-93598636D01*
X112783466Y-93563897D01*
X112808452Y-93533452D01*
X112838897Y-93508466D01*
X112873636Y-93489898D01*
X112911323Y-93478465D01*
X112956661Y-93474000D01*
X114043339Y-93474000D01*
X114088677Y-93478465D01*
X114088677Y-93478465D01*
G37*
G36*
X119869714Y-93321389D02*
X119950644Y-93354911D01*
X120023483Y-93403581D01*
X120085419Y-93465517D01*
X120134089Y-93538356D01*
X120167611Y-93619286D01*
X120184700Y-93705199D01*
X120184700Y-93792801D01*
X120167611Y-93878714D01*
X120134089Y-93959644D01*
X120085419Y-94032483D01*
X120023483Y-94094419D01*
X119950644Y-94143089D01*
X119869714Y-94176611D01*
X119783801Y-94193700D01*
X119696199Y-94193700D01*
X119610286Y-94176611D01*
X119529356Y-94143089D01*
X119456517Y-94094419D01*
X119394581Y-94032483D01*
X119345911Y-93959644D01*
X119312389Y-93878714D01*
X119295300Y-93792801D01*
X119295300Y-93705199D01*
X119312389Y-93619286D01*
X119345911Y-93538356D01*
X119394581Y-93465517D01*
X119456517Y-93403581D01*
X119529356Y-93354911D01*
X119610286Y-93321389D01*
X119696199Y-93304300D01*
X119783801Y-93304300D01*
X119869714Y-93321389D01*
X119869714Y-93321389D01*
G37*
G36*
X122409714Y-93321389D02*
X122490644Y-93354911D01*
X122563483Y-93403581D01*
X122625419Y-93465517D01*
X122674089Y-93538356D01*
X122707611Y-93619286D01*
X122724700Y-93705199D01*
X122724700Y-93792801D01*
X122707611Y-93878714D01*
X122674089Y-93959644D01*
X122625419Y-94032483D01*
X122563483Y-94094419D01*
X122490644Y-94143089D01*
X122409714Y-94176611D01*
X122323801Y-94193700D01*
X122236199Y-94193700D01*
X122150286Y-94176611D01*
X122069356Y-94143089D01*
X121996517Y-94094419D01*
X121934581Y-94032483D01*
X121885911Y-93959644D01*
X121852389Y-93878714D01*
X121835300Y-93792801D01*
X121835300Y-93705199D01*
X121852389Y-93619286D01*
X121885911Y-93538356D01*
X121934581Y-93465517D01*
X121996517Y-93403581D01*
X122069356Y-93354911D01*
X122150286Y-93321389D01*
X122236199Y-93304300D01*
X122323801Y-93304300D01*
X122409714Y-93321389D01*
X122409714Y-93321389D01*
G37*
G36*
X121139714Y-93321389D02*
X121220644Y-93354911D01*
X121293483Y-93403581D01*
X121355419Y-93465517D01*
X121404089Y-93538356D01*
X121437611Y-93619286D01*
X121454700Y-93705199D01*
X121454700Y-93792801D01*
X121437611Y-93878714D01*
X121404089Y-93959644D01*
X121355419Y-94032483D01*
X121293483Y-94094419D01*
X121220644Y-94143089D01*
X121139714Y-94176611D01*
X121053801Y-94193700D01*
X120966199Y-94193700D01*
X120880286Y-94176611D01*
X120799356Y-94143089D01*
X120726517Y-94094419D01*
X120664581Y-94032483D01*
X120615911Y-93959644D01*
X120582389Y-93878714D01*
X120565300Y-93792801D01*
X120565300Y-93705199D01*
X120582389Y-93619286D01*
X120615911Y-93538356D01*
X120664581Y-93465517D01*
X120726517Y-93403581D01*
X120799356Y-93354911D01*
X120880286Y-93321389D01*
X120966199Y-93304300D01*
X121053801Y-93304300D01*
X121139714Y-93321389D01*
X121139714Y-93321389D01*
G37*
G36*
X118599714Y-93321389D02*
X118680644Y-93354911D01*
X118753483Y-93403581D01*
X118815419Y-93465517D01*
X118864089Y-93538356D01*
X118897611Y-93619286D01*
X118914700Y-93705199D01*
X118914700Y-93792801D01*
X118897611Y-93878714D01*
X118864089Y-93959644D01*
X118815419Y-94032483D01*
X118753483Y-94094419D01*
X118680644Y-94143089D01*
X118599714Y-94176611D01*
X118513801Y-94193700D01*
X118426199Y-94193700D01*
X118340286Y-94176611D01*
X118259356Y-94143089D01*
X118186517Y-94094419D01*
X118124581Y-94032483D01*
X118075911Y-93959644D01*
X118042389Y-93878714D01*
X118025300Y-93792801D01*
X118025300Y-93705199D01*
X118042389Y-93619286D01*
X118075911Y-93538356D01*
X118124581Y-93465517D01*
X118186517Y-93403581D01*
X118259356Y-93354911D01*
X118340286Y-93321389D01*
X118426199Y-93304300D01*
X118513801Y-93304300D01*
X118599714Y-93321389D01*
X118599714Y-93321389D01*
G37*
G36*
X117329714Y-93321389D02*
X117410644Y-93354911D01*
X117483483Y-93403581D01*
X117545419Y-93465517D01*
X117594089Y-93538356D01*
X117627611Y-93619286D01*
X117644700Y-93705199D01*
X117644700Y-93792801D01*
X117627611Y-93878714D01*
X117594089Y-93959644D01*
X117545419Y-94032483D01*
X117483483Y-94094419D01*
X117410644Y-94143089D01*
X117329714Y-94176611D01*
X117243801Y-94193700D01*
X117156199Y-94193700D01*
X117070286Y-94176611D01*
X116989356Y-94143089D01*
X116916517Y-94094419D01*
X116854581Y-94032483D01*
X116805911Y-93959644D01*
X116772389Y-93878714D01*
X116755300Y-93792801D01*
X116755300Y-93705199D01*
X116772389Y-93619286D01*
X116805911Y-93538356D01*
X116854581Y-93465517D01*
X116916517Y-93403581D01*
X116989356Y-93354911D01*
X117070286Y-93321389D01*
X117156199Y-93304300D01*
X117243801Y-93304300D01*
X117329714Y-93321389D01*
X117329714Y-93321389D01*
G37*
G36*
X123709350Y-92842694D02*
X123808770Y-92883875D01*
X123898249Y-92943663D01*
X123974337Y-93019751D01*
X124034125Y-93109230D01*
X124075306Y-93208650D01*
X124096300Y-93314194D01*
X124096300Y-93421806D01*
X124075306Y-93527350D01*
X124034125Y-93626770D01*
X123974337Y-93716249D01*
X123898249Y-93792337D01*
X123808770Y-93852125D01*
X123709350Y-93893306D01*
X123603806Y-93914300D01*
X123496194Y-93914300D01*
X123390650Y-93893306D01*
X123291230Y-93852125D01*
X123201751Y-93792337D01*
X123125663Y-93716249D01*
X123065875Y-93626770D01*
X123024694Y-93527350D01*
X123003700Y-93421806D01*
X123003700Y-93314194D01*
X123024694Y-93208650D01*
X123065875Y-93109230D01*
X123125663Y-93019751D01*
X123201751Y-92943663D01*
X123291230Y-92883875D01*
X123390650Y-92842694D01*
X123496194Y-92821700D01*
X123603806Y-92821700D01*
X123709350Y-92842694D01*
X123709350Y-92842694D01*
G37*
G36*
X94501000Y-93901000D02*
X92899000Y-93901000D01*
X92899000Y-91799000D01*
X94501000Y-91799000D01*
X94501000Y-93901000D01*
X94501000Y-93901000D01*
G37*
G36*
X96801000Y-93901000D02*
X95199000Y-93901000D01*
X95199000Y-91799000D01*
X96801000Y-91799000D01*
X96801000Y-93901000D01*
X96801000Y-93901000D01*
G37*
G36*
X99101000Y-93901000D02*
X97499000Y-93901000D01*
X97499000Y-91799000D01*
X99101000Y-91799000D01*
X99101000Y-93901000D01*
X99101000Y-93901000D01*
G37*
G36*
X109826000Y-93101000D02*
X103974000Y-93101000D01*
X103974000Y-91699000D01*
X109826000Y-91699000D01*
X109826000Y-93101000D01*
X109826000Y-93101000D01*
G37*
G36*
X112263677Y-91278465D02*
X112301364Y-91289898D01*
X112336103Y-91308466D01*
X112366548Y-91333452D01*
X112391534Y-91363897D01*
X112410102Y-91398636D01*
X112421535Y-91436323D01*
X112426000Y-91481661D01*
X112426000Y-92568339D01*
X112421535Y-92613677D01*
X112410102Y-92651364D01*
X112391534Y-92686103D01*
X112366548Y-92716548D01*
X112336103Y-92741534D01*
X112301364Y-92760102D01*
X112263677Y-92771535D01*
X112218339Y-92776000D01*
X111381661Y-92776000D01*
X111336323Y-92771535D01*
X111298636Y-92760102D01*
X111263897Y-92741534D01*
X111233452Y-92716548D01*
X111208466Y-92686103D01*
X111189898Y-92651364D01*
X111178465Y-92613677D01*
X111174000Y-92568339D01*
X111174000Y-91481661D01*
X111178465Y-91436323D01*
X111189898Y-91398636D01*
X111208466Y-91363897D01*
X111233452Y-91333452D01*
X111263897Y-91308466D01*
X111298636Y-91289898D01*
X111336323Y-91278465D01*
X111381661Y-91274000D01*
X112218339Y-91274000D01*
X112263677Y-91278465D01*
X112263677Y-91278465D01*
G37*
G36*
X114313677Y-91278465D02*
X114351364Y-91289898D01*
X114386103Y-91308466D01*
X114416548Y-91333452D01*
X114441534Y-91363897D01*
X114460102Y-91398636D01*
X114471535Y-91436323D01*
X114476000Y-91481661D01*
X114476000Y-92568339D01*
X114471535Y-92613677D01*
X114460102Y-92651364D01*
X114441534Y-92686103D01*
X114416548Y-92716548D01*
X114386103Y-92741534D01*
X114351364Y-92760102D01*
X114313677Y-92771535D01*
X114268339Y-92776000D01*
X113431661Y-92776000D01*
X113386323Y-92771535D01*
X113348636Y-92760102D01*
X113313897Y-92741534D01*
X113283452Y-92716548D01*
X113258466Y-92686103D01*
X113239898Y-92651364D01*
X113228465Y-92613677D01*
X113224000Y-92568339D01*
X113224000Y-91481661D01*
X113228465Y-91436323D01*
X113239898Y-91398636D01*
X113258466Y-91363897D01*
X113283452Y-91333452D01*
X113313897Y-91308466D01*
X113348636Y-91289898D01*
X113386323Y-91278465D01*
X113431661Y-91274000D01*
X114268339Y-91274000D01*
X114313677Y-91278465D01*
X114313677Y-91278465D01*
G37*
M02*
