G04 #@! TF.GenerationSoftware,KiCad,Pcbnew,5.0.1+dfsg1-3*
G04 #@! TF.CreationDate,2019-03-17T20:51:19-04:00*
G04 #@! TF.ProjectId,controller,636F6E74726F6C6C65722E6B69636164,rev?*
G04 #@! TF.SameCoordinates,Original*
G04 #@! TF.FileFunction,Paste,Bot*
G04 #@! TF.FilePolarity,Positive*
%FSLAX46Y46*%
G04 Gerber Fmt 4.6, Leading zero omitted, Abs format (unit mm)*
G04 Created by KiCad (PCBNEW 5.0.1+dfsg1-3) date Sun 17 Mar 2019 08:51:19 PM EDT*
%MOMM*%
%LPD*%
G01*
G04 APERTURE LIST*
%ADD10C,0.100000*%
%ADD11C,1.150000*%
G04 APERTURE END LIST*
D10*
G04 #@! TO.C,C2*
G36*
X108274505Y-97201204D02*
X108298773Y-97204804D01*
X108322572Y-97210765D01*
X108345671Y-97219030D01*
X108367850Y-97229520D01*
X108388893Y-97242132D01*
X108408599Y-97256747D01*
X108426777Y-97273223D01*
X108443253Y-97291401D01*
X108457868Y-97311107D01*
X108470480Y-97332150D01*
X108480970Y-97354329D01*
X108489235Y-97377428D01*
X108495196Y-97401227D01*
X108498796Y-97425495D01*
X108500000Y-97449999D01*
X108500000Y-98350001D01*
X108498796Y-98374505D01*
X108495196Y-98398773D01*
X108489235Y-98422572D01*
X108480970Y-98445671D01*
X108470480Y-98467850D01*
X108457868Y-98488893D01*
X108443253Y-98508599D01*
X108426777Y-98526777D01*
X108408599Y-98543253D01*
X108388893Y-98557868D01*
X108367850Y-98570480D01*
X108345671Y-98580970D01*
X108322572Y-98589235D01*
X108298773Y-98595196D01*
X108274505Y-98598796D01*
X108250001Y-98600000D01*
X107599999Y-98600000D01*
X107575495Y-98598796D01*
X107551227Y-98595196D01*
X107527428Y-98589235D01*
X107504329Y-98580970D01*
X107482150Y-98570480D01*
X107461107Y-98557868D01*
X107441401Y-98543253D01*
X107423223Y-98526777D01*
X107406747Y-98508599D01*
X107392132Y-98488893D01*
X107379520Y-98467850D01*
X107369030Y-98445671D01*
X107360765Y-98422572D01*
X107354804Y-98398773D01*
X107351204Y-98374505D01*
X107350000Y-98350001D01*
X107350000Y-97449999D01*
X107351204Y-97425495D01*
X107354804Y-97401227D01*
X107360765Y-97377428D01*
X107369030Y-97354329D01*
X107379520Y-97332150D01*
X107392132Y-97311107D01*
X107406747Y-97291401D01*
X107423223Y-97273223D01*
X107441401Y-97256747D01*
X107461107Y-97242132D01*
X107482150Y-97229520D01*
X107504329Y-97219030D01*
X107527428Y-97210765D01*
X107551227Y-97204804D01*
X107575495Y-97201204D01*
X107599999Y-97200000D01*
X108250001Y-97200000D01*
X108274505Y-97201204D01*
X108274505Y-97201204D01*
G37*
D11*
X107925000Y-97900000D03*
D10*
G36*
X106224505Y-97201204D02*
X106248773Y-97204804D01*
X106272572Y-97210765D01*
X106295671Y-97219030D01*
X106317850Y-97229520D01*
X106338893Y-97242132D01*
X106358599Y-97256747D01*
X106376777Y-97273223D01*
X106393253Y-97291401D01*
X106407868Y-97311107D01*
X106420480Y-97332150D01*
X106430970Y-97354329D01*
X106439235Y-97377428D01*
X106445196Y-97401227D01*
X106448796Y-97425495D01*
X106450000Y-97449999D01*
X106450000Y-98350001D01*
X106448796Y-98374505D01*
X106445196Y-98398773D01*
X106439235Y-98422572D01*
X106430970Y-98445671D01*
X106420480Y-98467850D01*
X106407868Y-98488893D01*
X106393253Y-98508599D01*
X106376777Y-98526777D01*
X106358599Y-98543253D01*
X106338893Y-98557868D01*
X106317850Y-98570480D01*
X106295671Y-98580970D01*
X106272572Y-98589235D01*
X106248773Y-98595196D01*
X106224505Y-98598796D01*
X106200001Y-98600000D01*
X105549999Y-98600000D01*
X105525495Y-98598796D01*
X105501227Y-98595196D01*
X105477428Y-98589235D01*
X105454329Y-98580970D01*
X105432150Y-98570480D01*
X105411107Y-98557868D01*
X105391401Y-98543253D01*
X105373223Y-98526777D01*
X105356747Y-98508599D01*
X105342132Y-98488893D01*
X105329520Y-98467850D01*
X105319030Y-98445671D01*
X105310765Y-98422572D01*
X105304804Y-98398773D01*
X105301204Y-98374505D01*
X105300000Y-98350001D01*
X105300000Y-97449999D01*
X105301204Y-97425495D01*
X105304804Y-97401227D01*
X105310765Y-97377428D01*
X105319030Y-97354329D01*
X105329520Y-97332150D01*
X105342132Y-97311107D01*
X105356747Y-97291401D01*
X105373223Y-97273223D01*
X105391401Y-97256747D01*
X105411107Y-97242132D01*
X105432150Y-97229520D01*
X105454329Y-97219030D01*
X105477428Y-97210765D01*
X105501227Y-97204804D01*
X105525495Y-97201204D01*
X105549999Y-97200000D01*
X106200001Y-97200000D01*
X106224505Y-97201204D01*
X106224505Y-97201204D01*
G37*
D11*
X105875000Y-97900000D03*
G04 #@! TD*
D10*
G04 #@! TO.C,C1*
G36*
X106224505Y-94901204D02*
X106248773Y-94904804D01*
X106272572Y-94910765D01*
X106295671Y-94919030D01*
X106317850Y-94929520D01*
X106338893Y-94942132D01*
X106358599Y-94956747D01*
X106376777Y-94973223D01*
X106393253Y-94991401D01*
X106407868Y-95011107D01*
X106420480Y-95032150D01*
X106430970Y-95054329D01*
X106439235Y-95077428D01*
X106445196Y-95101227D01*
X106448796Y-95125495D01*
X106450000Y-95149999D01*
X106450000Y-96050001D01*
X106448796Y-96074505D01*
X106445196Y-96098773D01*
X106439235Y-96122572D01*
X106430970Y-96145671D01*
X106420480Y-96167850D01*
X106407868Y-96188893D01*
X106393253Y-96208599D01*
X106376777Y-96226777D01*
X106358599Y-96243253D01*
X106338893Y-96257868D01*
X106317850Y-96270480D01*
X106295671Y-96280970D01*
X106272572Y-96289235D01*
X106248773Y-96295196D01*
X106224505Y-96298796D01*
X106200001Y-96300000D01*
X105549999Y-96300000D01*
X105525495Y-96298796D01*
X105501227Y-96295196D01*
X105477428Y-96289235D01*
X105454329Y-96280970D01*
X105432150Y-96270480D01*
X105411107Y-96257868D01*
X105391401Y-96243253D01*
X105373223Y-96226777D01*
X105356747Y-96208599D01*
X105342132Y-96188893D01*
X105329520Y-96167850D01*
X105319030Y-96145671D01*
X105310765Y-96122572D01*
X105304804Y-96098773D01*
X105301204Y-96074505D01*
X105300000Y-96050001D01*
X105300000Y-95149999D01*
X105301204Y-95125495D01*
X105304804Y-95101227D01*
X105310765Y-95077428D01*
X105319030Y-95054329D01*
X105329520Y-95032150D01*
X105342132Y-95011107D01*
X105356747Y-94991401D01*
X105373223Y-94973223D01*
X105391401Y-94956747D01*
X105411107Y-94942132D01*
X105432150Y-94929520D01*
X105454329Y-94919030D01*
X105477428Y-94910765D01*
X105501227Y-94904804D01*
X105525495Y-94901204D01*
X105549999Y-94900000D01*
X106200001Y-94900000D01*
X106224505Y-94901204D01*
X106224505Y-94901204D01*
G37*
D11*
X105875000Y-95600000D03*
D10*
G36*
X108274505Y-94901204D02*
X108298773Y-94904804D01*
X108322572Y-94910765D01*
X108345671Y-94919030D01*
X108367850Y-94929520D01*
X108388893Y-94942132D01*
X108408599Y-94956747D01*
X108426777Y-94973223D01*
X108443253Y-94991401D01*
X108457868Y-95011107D01*
X108470480Y-95032150D01*
X108480970Y-95054329D01*
X108489235Y-95077428D01*
X108495196Y-95101227D01*
X108498796Y-95125495D01*
X108500000Y-95149999D01*
X108500000Y-96050001D01*
X108498796Y-96074505D01*
X108495196Y-96098773D01*
X108489235Y-96122572D01*
X108480970Y-96145671D01*
X108470480Y-96167850D01*
X108457868Y-96188893D01*
X108443253Y-96208599D01*
X108426777Y-96226777D01*
X108408599Y-96243253D01*
X108388893Y-96257868D01*
X108367850Y-96270480D01*
X108345671Y-96280970D01*
X108322572Y-96289235D01*
X108298773Y-96295196D01*
X108274505Y-96298796D01*
X108250001Y-96300000D01*
X107599999Y-96300000D01*
X107575495Y-96298796D01*
X107551227Y-96295196D01*
X107527428Y-96289235D01*
X107504329Y-96280970D01*
X107482150Y-96270480D01*
X107461107Y-96257868D01*
X107441401Y-96243253D01*
X107423223Y-96226777D01*
X107406747Y-96208599D01*
X107392132Y-96188893D01*
X107379520Y-96167850D01*
X107369030Y-96145671D01*
X107360765Y-96122572D01*
X107354804Y-96098773D01*
X107351204Y-96074505D01*
X107350000Y-96050001D01*
X107350000Y-95149999D01*
X107351204Y-95125495D01*
X107354804Y-95101227D01*
X107360765Y-95077428D01*
X107369030Y-95054329D01*
X107379520Y-95032150D01*
X107392132Y-95011107D01*
X107406747Y-94991401D01*
X107423223Y-94973223D01*
X107441401Y-94956747D01*
X107461107Y-94942132D01*
X107482150Y-94929520D01*
X107504329Y-94919030D01*
X107527428Y-94910765D01*
X107551227Y-94904804D01*
X107575495Y-94901204D01*
X107599999Y-94900000D01*
X108250001Y-94900000D01*
X108274505Y-94901204D01*
X108274505Y-94901204D01*
G37*
D11*
X107925000Y-95600000D03*
G04 #@! TD*
M02*
