G04 #@! TF.GenerationSoftware,KiCad,Pcbnew,5.0.1+dfsg1-3*
G04 #@! TF.CreationDate,2019-03-17T20:51:20-04:00*
G04 #@! TF.ProjectId,controller,636F6E74726F6C6C65722E6B69636164,rev?*
G04 #@! TF.SameCoordinates,Original*
G04 #@! TF.FileFunction,Soldermask,Bot*
G04 #@! TF.FilePolarity,Negative*
%FSLAX46Y46*%
G04 Gerber Fmt 4.6, Leading zero omitted, Abs format (unit mm)*
G04 Created by KiCad (PCBNEW 5.0.1+dfsg1-3) date Sun 17 Mar 2019 08:51:20 PM EDT*
%MOMM*%
%LPD*%
G01*
G04 APERTURE LIST*
%ADD10C,0.100000*%
G04 APERTURE END LIST*
D10*
G36*
X133125256Y-120641298D02*
X133231579Y-120662447D01*
X133532042Y-120786903D01*
X133798852Y-120965180D01*
X133802454Y-120967587D01*
X134032413Y-121197546D01*
X134213098Y-121467960D01*
X134337553Y-121768422D01*
X134401000Y-122087389D01*
X134401000Y-122412611D01*
X134337553Y-122731578D01*
X134213098Y-123032040D01*
X134032413Y-123302454D01*
X133802454Y-123532413D01*
X133802451Y-123532415D01*
X133532042Y-123713097D01*
X133231579Y-123837553D01*
X133125256Y-123858702D01*
X132912611Y-123901000D01*
X132587389Y-123901000D01*
X132374744Y-123858702D01*
X132268421Y-123837553D01*
X131967958Y-123713097D01*
X131697549Y-123532415D01*
X131697546Y-123532413D01*
X131467587Y-123302454D01*
X131286902Y-123032040D01*
X131162447Y-122731578D01*
X131099000Y-122412611D01*
X131099000Y-122087389D01*
X131162447Y-121768422D01*
X131286902Y-121467960D01*
X131467587Y-121197546D01*
X131697546Y-120967587D01*
X131701148Y-120965180D01*
X131967958Y-120786903D01*
X132268421Y-120662447D01*
X132374744Y-120641298D01*
X132587389Y-120599000D01*
X132912611Y-120599000D01*
X133125256Y-120641298D01*
X133125256Y-120641298D01*
G37*
G36*
X88875256Y-120641298D02*
X88981579Y-120662447D01*
X89282042Y-120786903D01*
X89548852Y-120965180D01*
X89552454Y-120967587D01*
X89782413Y-121197546D01*
X89963098Y-121467960D01*
X90087553Y-121768422D01*
X90151000Y-122087389D01*
X90151000Y-122412611D01*
X90087553Y-122731578D01*
X89963098Y-123032040D01*
X89782413Y-123302454D01*
X89552454Y-123532413D01*
X89552451Y-123532415D01*
X89282042Y-123713097D01*
X88981579Y-123837553D01*
X88875256Y-123858702D01*
X88662611Y-123901000D01*
X88337389Y-123901000D01*
X88124744Y-123858702D01*
X88018421Y-123837553D01*
X87717958Y-123713097D01*
X87447549Y-123532415D01*
X87447546Y-123532413D01*
X87217587Y-123302454D01*
X87036902Y-123032040D01*
X86912447Y-122731578D01*
X86849000Y-122412611D01*
X86849000Y-122087389D01*
X86912447Y-121768422D01*
X87036902Y-121467960D01*
X87217587Y-121197546D01*
X87447546Y-120967587D01*
X87451148Y-120965180D01*
X87717958Y-120786903D01*
X88018421Y-120662447D01*
X88124744Y-120641298D01*
X88337389Y-120599000D01*
X88662611Y-120599000D01*
X88875256Y-120641298D01*
X88875256Y-120641298D01*
G37*
G36*
X128610443Y-115685519D02*
X128676627Y-115692037D01*
X128789853Y-115726384D01*
X128846467Y-115743557D01*
X128985087Y-115817652D01*
X129002991Y-115827222D01*
X129026441Y-115846467D01*
X129140186Y-115939814D01*
X129192033Y-116002991D01*
X129252778Y-116077009D01*
X129252779Y-116077011D01*
X129336443Y-116233533D01*
X129336443Y-116233534D01*
X129387963Y-116403373D01*
X129405359Y-116580000D01*
X129387963Y-116756627D01*
X129364799Y-116832989D01*
X129336443Y-116926467D01*
X129313075Y-116970185D01*
X129252778Y-117082991D01*
X129223448Y-117118729D01*
X129140186Y-117220186D01*
X129038729Y-117303448D01*
X129002991Y-117332778D01*
X129002989Y-117332779D01*
X128846467Y-117416443D01*
X128789853Y-117433616D01*
X128676627Y-117467963D01*
X128610442Y-117474482D01*
X128544260Y-117481000D01*
X128455740Y-117481000D01*
X128389558Y-117474482D01*
X128323373Y-117467963D01*
X128210147Y-117433616D01*
X128153533Y-117416443D01*
X127997011Y-117332779D01*
X127997009Y-117332778D01*
X127961271Y-117303448D01*
X127859814Y-117220186D01*
X127776552Y-117118729D01*
X127747222Y-117082991D01*
X127686925Y-116970185D01*
X127663557Y-116926467D01*
X127635201Y-116832989D01*
X127612037Y-116756627D01*
X127594641Y-116580000D01*
X127612037Y-116403373D01*
X127663557Y-116233534D01*
X127663557Y-116233533D01*
X127747221Y-116077011D01*
X127747222Y-116077009D01*
X127807967Y-116002991D01*
X127859814Y-115939814D01*
X127973559Y-115846467D01*
X127997009Y-115827222D01*
X128014913Y-115817652D01*
X128153533Y-115743557D01*
X128210147Y-115726384D01*
X128323373Y-115692037D01*
X128389557Y-115685519D01*
X128455740Y-115679000D01*
X128544260Y-115679000D01*
X128610443Y-115685519D01*
X128610443Y-115685519D01*
G37*
G36*
X88360442Y-115435518D02*
X88426627Y-115442037D01*
X88539853Y-115476384D01*
X88596467Y-115493557D01*
X88735087Y-115567652D01*
X88752991Y-115577222D01*
X88788729Y-115606552D01*
X88890186Y-115689814D01*
X88973448Y-115791271D01*
X89002778Y-115827009D01*
X89002779Y-115827011D01*
X89086443Y-115983533D01*
X89086443Y-115983534D01*
X89137963Y-116153373D01*
X89155359Y-116330000D01*
X89137963Y-116506627D01*
X89103616Y-116619853D01*
X89086443Y-116676467D01*
X89043597Y-116756625D01*
X89002778Y-116832991D01*
X88973448Y-116868729D01*
X88890186Y-116970186D01*
X88788729Y-117053448D01*
X88752991Y-117082778D01*
X88735087Y-117092348D01*
X88596467Y-117166443D01*
X88539853Y-117183616D01*
X88426627Y-117217963D01*
X88360443Y-117224481D01*
X88294260Y-117231000D01*
X88205740Y-117231000D01*
X88139557Y-117224481D01*
X88073373Y-117217963D01*
X87960147Y-117183616D01*
X87903533Y-117166443D01*
X87764913Y-117092348D01*
X87747009Y-117082778D01*
X87711271Y-117053448D01*
X87609814Y-116970186D01*
X87526552Y-116868729D01*
X87497222Y-116832991D01*
X87456403Y-116756625D01*
X87413557Y-116676467D01*
X87396384Y-116619853D01*
X87362037Y-116506627D01*
X87344641Y-116330000D01*
X87362037Y-116153373D01*
X87413557Y-115983534D01*
X87413557Y-115983533D01*
X87497221Y-115827011D01*
X87497222Y-115827009D01*
X87526552Y-115791271D01*
X87609814Y-115689814D01*
X87711271Y-115606552D01*
X87747009Y-115577222D01*
X87764913Y-115567652D01*
X87903533Y-115493557D01*
X87960147Y-115476384D01*
X88073373Y-115442037D01*
X88139558Y-115435518D01*
X88205740Y-115429000D01*
X88294260Y-115429000D01*
X88360442Y-115435518D01*
X88360442Y-115435518D01*
G37*
G36*
X120401000Y-116401000D02*
X118599000Y-116401000D01*
X118599000Y-114599000D01*
X120401000Y-114599000D01*
X120401000Y-116401000D01*
X120401000Y-116401000D01*
G37*
G36*
X124690443Y-114605519D02*
X124756627Y-114612037D01*
X124869853Y-114646384D01*
X124926467Y-114663557D01*
X124977808Y-114691000D01*
X125082991Y-114747222D01*
X125118729Y-114776552D01*
X125220186Y-114859814D01*
X125303448Y-114961271D01*
X125332778Y-114997009D01*
X125332779Y-114997011D01*
X125416443Y-115153533D01*
X125416443Y-115153534D01*
X125467963Y-115323373D01*
X125485359Y-115500000D01*
X125467963Y-115676627D01*
X125463962Y-115689815D01*
X125416443Y-115846467D01*
X125366547Y-115939814D01*
X125332778Y-116002991D01*
X125303448Y-116038729D01*
X125220186Y-116140186D01*
X125118729Y-116223448D01*
X125082991Y-116252778D01*
X125082989Y-116252779D01*
X124926467Y-116336443D01*
X124869853Y-116353616D01*
X124756627Y-116387963D01*
X124690443Y-116394481D01*
X124624260Y-116401000D01*
X124535740Y-116401000D01*
X124469557Y-116394481D01*
X124403373Y-116387963D01*
X124290147Y-116353616D01*
X124233533Y-116336443D01*
X124077011Y-116252779D01*
X124077009Y-116252778D01*
X124041271Y-116223448D01*
X123939814Y-116140186D01*
X123856552Y-116038729D01*
X123827222Y-116002991D01*
X123793453Y-115939814D01*
X123743557Y-115846467D01*
X123696038Y-115689815D01*
X123692037Y-115676627D01*
X123674641Y-115500000D01*
X123692037Y-115323373D01*
X123743557Y-115153534D01*
X123743557Y-115153533D01*
X123827221Y-114997011D01*
X123827222Y-114997009D01*
X123856552Y-114961271D01*
X123939814Y-114859814D01*
X124041271Y-114776552D01*
X124077009Y-114747222D01*
X124182192Y-114691000D01*
X124233533Y-114663557D01*
X124290147Y-114646384D01*
X124403373Y-114612037D01*
X124469557Y-114605519D01*
X124535740Y-114599000D01*
X124624260Y-114599000D01*
X124690443Y-114605519D01*
X124690443Y-114605519D01*
G37*
G36*
X122150443Y-114605519D02*
X122216627Y-114612037D01*
X122329853Y-114646384D01*
X122386467Y-114663557D01*
X122437808Y-114691000D01*
X122542991Y-114747222D01*
X122578729Y-114776552D01*
X122680186Y-114859814D01*
X122763448Y-114961271D01*
X122792778Y-114997009D01*
X122792779Y-114997011D01*
X122876443Y-115153533D01*
X122876443Y-115153534D01*
X122927963Y-115323373D01*
X122945359Y-115500000D01*
X122927963Y-115676627D01*
X122923962Y-115689815D01*
X122876443Y-115846467D01*
X122826547Y-115939814D01*
X122792778Y-116002991D01*
X122763448Y-116038729D01*
X122680186Y-116140186D01*
X122578729Y-116223448D01*
X122542991Y-116252778D01*
X122542989Y-116252779D01*
X122386467Y-116336443D01*
X122329853Y-116353616D01*
X122216627Y-116387963D01*
X122150443Y-116394481D01*
X122084260Y-116401000D01*
X121995740Y-116401000D01*
X121929557Y-116394481D01*
X121863373Y-116387963D01*
X121750147Y-116353616D01*
X121693533Y-116336443D01*
X121537011Y-116252779D01*
X121537009Y-116252778D01*
X121501271Y-116223448D01*
X121399814Y-116140186D01*
X121316552Y-116038729D01*
X121287222Y-116002991D01*
X121253453Y-115939814D01*
X121203557Y-115846467D01*
X121156038Y-115689815D01*
X121152037Y-115676627D01*
X121134641Y-115500000D01*
X121152037Y-115323373D01*
X121203557Y-115153534D01*
X121203557Y-115153533D01*
X121287221Y-114997011D01*
X121287222Y-114997009D01*
X121316552Y-114961271D01*
X121399814Y-114859814D01*
X121501271Y-114776552D01*
X121537009Y-114747222D01*
X121642192Y-114691000D01*
X121693533Y-114663557D01*
X121750147Y-114646384D01*
X121863373Y-114612037D01*
X121929557Y-114605519D01*
X121995740Y-114599000D01*
X122084260Y-114599000D01*
X122150443Y-114605519D01*
X122150443Y-114605519D01*
G37*
G36*
X128610442Y-113145518D02*
X128676627Y-113152037D01*
X128789853Y-113186384D01*
X128846467Y-113203557D01*
X128985087Y-113277652D01*
X129002991Y-113287222D01*
X129038729Y-113316552D01*
X129140186Y-113399814D01*
X129223448Y-113501271D01*
X129252778Y-113537009D01*
X129252779Y-113537011D01*
X129336443Y-113693533D01*
X129336443Y-113693534D01*
X129387963Y-113863373D01*
X129405359Y-114040000D01*
X129387963Y-114216627D01*
X129364799Y-114292989D01*
X129336443Y-114386467D01*
X129313075Y-114430185D01*
X129252778Y-114542991D01*
X129223448Y-114578729D01*
X129140186Y-114680186D01*
X129058502Y-114747221D01*
X129002991Y-114792778D01*
X129002989Y-114792779D01*
X128846467Y-114876443D01*
X128789853Y-114893616D01*
X128676627Y-114927963D01*
X128610443Y-114934481D01*
X128544260Y-114941000D01*
X128455740Y-114941000D01*
X128389557Y-114934481D01*
X128323373Y-114927963D01*
X128210147Y-114893616D01*
X128153533Y-114876443D01*
X127997011Y-114792779D01*
X127997009Y-114792778D01*
X127941498Y-114747221D01*
X127859814Y-114680186D01*
X127776552Y-114578729D01*
X127747222Y-114542991D01*
X127686925Y-114430185D01*
X127663557Y-114386467D01*
X127635201Y-114292989D01*
X127612037Y-114216627D01*
X127594641Y-114040000D01*
X127612037Y-113863373D01*
X127663557Y-113693534D01*
X127663557Y-113693533D01*
X127747221Y-113537011D01*
X127747222Y-113537009D01*
X127776552Y-113501271D01*
X127859814Y-113399814D01*
X127961271Y-113316552D01*
X127997009Y-113287222D01*
X128014913Y-113277652D01*
X128153533Y-113203557D01*
X128210147Y-113186384D01*
X128323373Y-113152037D01*
X128389558Y-113145518D01*
X128455740Y-113139000D01*
X128544260Y-113139000D01*
X128610442Y-113145518D01*
X128610442Y-113145518D01*
G37*
G36*
X88360442Y-112895518D02*
X88426627Y-112902037D01*
X88539853Y-112936384D01*
X88596467Y-112953557D01*
X88735087Y-113027652D01*
X88752991Y-113037222D01*
X88788729Y-113066552D01*
X88890186Y-113149814D01*
X88973448Y-113251271D01*
X89002778Y-113287009D01*
X89002779Y-113287011D01*
X89086443Y-113443533D01*
X89086443Y-113443534D01*
X89137963Y-113613373D01*
X89155359Y-113790000D01*
X89137963Y-113966627D01*
X89103616Y-114079853D01*
X89086443Y-114136467D01*
X89043597Y-114216625D01*
X89002778Y-114292991D01*
X88973448Y-114328729D01*
X88890186Y-114430186D01*
X88788729Y-114513448D01*
X88752991Y-114542778D01*
X88735087Y-114552348D01*
X88596467Y-114626443D01*
X88539853Y-114643616D01*
X88426627Y-114677963D01*
X88360442Y-114684482D01*
X88294260Y-114691000D01*
X88205740Y-114691000D01*
X88139558Y-114684482D01*
X88073373Y-114677963D01*
X87960147Y-114643616D01*
X87903533Y-114626443D01*
X87764913Y-114552348D01*
X87747009Y-114542778D01*
X87711271Y-114513448D01*
X87609814Y-114430186D01*
X87526552Y-114328729D01*
X87497222Y-114292991D01*
X87456403Y-114216625D01*
X87413557Y-114136467D01*
X87396384Y-114079853D01*
X87362037Y-113966627D01*
X87344641Y-113790000D01*
X87362037Y-113613373D01*
X87413557Y-113443534D01*
X87413557Y-113443533D01*
X87497221Y-113287011D01*
X87497222Y-113287009D01*
X87526552Y-113251271D01*
X87609814Y-113149814D01*
X87711271Y-113066552D01*
X87747009Y-113037222D01*
X87764913Y-113027652D01*
X87903533Y-112953557D01*
X87960147Y-112936384D01*
X88073373Y-112902037D01*
X88139558Y-112895518D01*
X88205740Y-112889000D01*
X88294260Y-112889000D01*
X88360442Y-112895518D01*
X88360442Y-112895518D01*
G37*
G36*
X120401000Y-112401000D02*
X118599000Y-112401000D01*
X118599000Y-110599000D01*
X120401000Y-110599000D01*
X120401000Y-112401000D01*
X120401000Y-112401000D01*
G37*
G36*
X129401000Y-112401000D02*
X127599000Y-112401000D01*
X127599000Y-110599000D01*
X129401000Y-110599000D01*
X129401000Y-112401000D01*
X129401000Y-112401000D01*
G37*
G36*
X124690443Y-110605519D02*
X124756627Y-110612037D01*
X124869853Y-110646384D01*
X124926467Y-110663557D01*
X125065087Y-110737652D01*
X125082991Y-110747222D01*
X125118729Y-110776552D01*
X125220186Y-110859814D01*
X125303448Y-110961271D01*
X125332778Y-110997009D01*
X125332779Y-110997011D01*
X125416443Y-111153533D01*
X125416443Y-111153534D01*
X125467963Y-111323373D01*
X125485359Y-111500000D01*
X125467963Y-111676627D01*
X125444799Y-111752989D01*
X125416443Y-111846467D01*
X125393075Y-111890185D01*
X125332778Y-112002991D01*
X125303448Y-112038729D01*
X125220186Y-112140186D01*
X125118729Y-112223448D01*
X125082991Y-112252778D01*
X125082989Y-112252779D01*
X124926467Y-112336443D01*
X124869853Y-112353616D01*
X124756627Y-112387963D01*
X124690443Y-112394481D01*
X124624260Y-112401000D01*
X124535740Y-112401000D01*
X124469557Y-112394481D01*
X124403373Y-112387963D01*
X124290147Y-112353616D01*
X124233533Y-112336443D01*
X124077011Y-112252779D01*
X124077009Y-112252778D01*
X124041271Y-112223448D01*
X123939814Y-112140186D01*
X123856552Y-112038729D01*
X123827222Y-112002991D01*
X123766925Y-111890185D01*
X123743557Y-111846467D01*
X123715201Y-111752989D01*
X123692037Y-111676627D01*
X123674641Y-111500000D01*
X123692037Y-111323373D01*
X123743557Y-111153534D01*
X123743557Y-111153533D01*
X123827221Y-110997011D01*
X123827222Y-110997009D01*
X123856552Y-110961271D01*
X123939814Y-110859814D01*
X124041271Y-110776552D01*
X124077009Y-110747222D01*
X124094913Y-110737652D01*
X124233533Y-110663557D01*
X124290147Y-110646384D01*
X124403373Y-110612037D01*
X124469557Y-110605519D01*
X124535740Y-110599000D01*
X124624260Y-110599000D01*
X124690443Y-110605519D01*
X124690443Y-110605519D01*
G37*
G36*
X122150443Y-110605519D02*
X122216627Y-110612037D01*
X122329853Y-110646384D01*
X122386467Y-110663557D01*
X122525087Y-110737652D01*
X122542991Y-110747222D01*
X122578729Y-110776552D01*
X122680186Y-110859814D01*
X122763448Y-110961271D01*
X122792778Y-110997009D01*
X122792779Y-110997011D01*
X122876443Y-111153533D01*
X122876443Y-111153534D01*
X122927963Y-111323373D01*
X122945359Y-111500000D01*
X122927963Y-111676627D01*
X122904799Y-111752989D01*
X122876443Y-111846467D01*
X122853075Y-111890185D01*
X122792778Y-112002991D01*
X122763448Y-112038729D01*
X122680186Y-112140186D01*
X122578729Y-112223448D01*
X122542991Y-112252778D01*
X122542989Y-112252779D01*
X122386467Y-112336443D01*
X122329853Y-112353616D01*
X122216627Y-112387963D01*
X122150443Y-112394481D01*
X122084260Y-112401000D01*
X121995740Y-112401000D01*
X121929557Y-112394481D01*
X121863373Y-112387963D01*
X121750147Y-112353616D01*
X121693533Y-112336443D01*
X121537011Y-112252779D01*
X121537009Y-112252778D01*
X121501271Y-112223448D01*
X121399814Y-112140186D01*
X121316552Y-112038729D01*
X121287222Y-112002991D01*
X121226925Y-111890185D01*
X121203557Y-111846467D01*
X121175201Y-111752989D01*
X121152037Y-111676627D01*
X121134641Y-111500000D01*
X121152037Y-111323373D01*
X121203557Y-111153534D01*
X121203557Y-111153533D01*
X121287221Y-110997011D01*
X121287222Y-110997009D01*
X121316552Y-110961271D01*
X121399814Y-110859814D01*
X121501271Y-110776552D01*
X121537009Y-110747222D01*
X121554913Y-110737652D01*
X121693533Y-110663557D01*
X121750147Y-110646384D01*
X121863373Y-110612037D01*
X121929557Y-110605519D01*
X121995740Y-110599000D01*
X122084260Y-110599000D01*
X122150443Y-110605519D01*
X122150443Y-110605519D01*
G37*
G36*
X88360443Y-110355519D02*
X88426627Y-110362037D01*
X88539853Y-110396384D01*
X88596467Y-110413557D01*
X88735087Y-110487652D01*
X88752991Y-110497222D01*
X88788729Y-110526552D01*
X88890186Y-110609814D01*
X88973448Y-110711271D01*
X89002778Y-110747009D01*
X89002779Y-110747011D01*
X89086443Y-110903533D01*
X89086443Y-110903534D01*
X89137963Y-111073373D01*
X89155359Y-111250000D01*
X89137963Y-111426627D01*
X89103616Y-111539853D01*
X89086443Y-111596467D01*
X89043597Y-111676625D01*
X89002778Y-111752991D01*
X88973448Y-111788729D01*
X88890186Y-111890186D01*
X88788729Y-111973448D01*
X88752991Y-112002778D01*
X88735087Y-112012348D01*
X88596467Y-112086443D01*
X88539853Y-112103616D01*
X88426627Y-112137963D01*
X88360442Y-112144482D01*
X88294260Y-112151000D01*
X88205740Y-112151000D01*
X88139558Y-112144482D01*
X88073373Y-112137963D01*
X87960147Y-112103616D01*
X87903533Y-112086443D01*
X87764913Y-112012348D01*
X87747009Y-112002778D01*
X87711271Y-111973448D01*
X87609814Y-111890186D01*
X87526552Y-111788729D01*
X87497222Y-111752991D01*
X87456403Y-111676625D01*
X87413557Y-111596467D01*
X87396384Y-111539853D01*
X87362037Y-111426627D01*
X87344641Y-111250000D01*
X87362037Y-111073373D01*
X87413557Y-110903534D01*
X87413557Y-110903533D01*
X87497221Y-110747011D01*
X87497222Y-110747009D01*
X87526552Y-110711271D01*
X87609814Y-110609814D01*
X87711271Y-110526552D01*
X87747009Y-110497222D01*
X87764913Y-110487652D01*
X87903533Y-110413557D01*
X87960147Y-110396384D01*
X88073373Y-110362037D01*
X88139557Y-110355519D01*
X88205740Y-110349000D01*
X88294260Y-110349000D01*
X88360443Y-110355519D01*
X88360443Y-110355519D01*
G37*
G36*
X89151000Y-109611000D02*
X87349000Y-109611000D01*
X87349000Y-107809000D01*
X89151000Y-107809000D01*
X89151000Y-109611000D01*
X89151000Y-109611000D01*
G37*
G36*
X128610443Y-105435519D02*
X128676627Y-105442037D01*
X128789853Y-105476384D01*
X128846467Y-105493557D01*
X128985087Y-105567652D01*
X129002991Y-105577222D01*
X129026441Y-105596467D01*
X129140186Y-105689814D01*
X129192033Y-105752991D01*
X129252778Y-105827009D01*
X129252779Y-105827011D01*
X129336443Y-105983533D01*
X129336443Y-105983534D01*
X129387963Y-106153373D01*
X129405359Y-106330000D01*
X129387963Y-106506627D01*
X129353616Y-106619853D01*
X129336443Y-106676467D01*
X129262348Y-106815087D01*
X129252778Y-106832991D01*
X129223448Y-106868729D01*
X129140186Y-106970186D01*
X129038729Y-107053448D01*
X129002991Y-107082778D01*
X129002989Y-107082779D01*
X128846467Y-107166443D01*
X128789853Y-107183616D01*
X128676627Y-107217963D01*
X128610443Y-107224481D01*
X128544260Y-107231000D01*
X128455740Y-107231000D01*
X128389557Y-107224481D01*
X128323373Y-107217963D01*
X128210147Y-107183616D01*
X128153533Y-107166443D01*
X127997011Y-107082779D01*
X127997009Y-107082778D01*
X127961271Y-107053448D01*
X127859814Y-106970186D01*
X127776552Y-106868729D01*
X127747222Y-106832991D01*
X127737652Y-106815087D01*
X127663557Y-106676467D01*
X127646384Y-106619853D01*
X127612037Y-106506627D01*
X127594641Y-106330000D01*
X127612037Y-106153373D01*
X127663557Y-105983534D01*
X127663557Y-105983533D01*
X127747221Y-105827011D01*
X127747222Y-105827009D01*
X127807967Y-105752991D01*
X127859814Y-105689814D01*
X127973559Y-105596467D01*
X127997009Y-105577222D01*
X128014913Y-105567652D01*
X128153533Y-105493557D01*
X128210147Y-105476384D01*
X128323373Y-105442037D01*
X128389558Y-105435518D01*
X128455740Y-105429000D01*
X128544260Y-105429000D01*
X128610443Y-105435519D01*
X128610443Y-105435519D01*
G37*
G36*
X120401000Y-106151000D02*
X118599000Y-106151000D01*
X118599000Y-104349000D01*
X120401000Y-104349000D01*
X120401000Y-106151000D01*
X120401000Y-106151000D01*
G37*
G36*
X122150443Y-104355519D02*
X122216627Y-104362037D01*
X122309422Y-104390186D01*
X122386467Y-104413557D01*
X122525087Y-104487652D01*
X122542991Y-104497222D01*
X122549762Y-104502779D01*
X122680186Y-104609814D01*
X122763448Y-104711271D01*
X122792778Y-104747009D01*
X122792779Y-104747011D01*
X122876443Y-104903533D01*
X122876443Y-104903534D01*
X122927963Y-105073373D01*
X122945359Y-105250000D01*
X122927963Y-105426627D01*
X122927243Y-105429000D01*
X122876443Y-105596467D01*
X122826547Y-105689814D01*
X122792778Y-105752991D01*
X122763448Y-105788729D01*
X122680186Y-105890186D01*
X122578729Y-105973448D01*
X122542991Y-106002778D01*
X122542989Y-106002779D01*
X122386467Y-106086443D01*
X122329853Y-106103616D01*
X122216627Y-106137963D01*
X122150443Y-106144481D01*
X122084260Y-106151000D01*
X121995740Y-106151000D01*
X121929557Y-106144481D01*
X121863373Y-106137963D01*
X121750147Y-106103616D01*
X121693533Y-106086443D01*
X121537011Y-106002779D01*
X121537009Y-106002778D01*
X121501271Y-105973448D01*
X121399814Y-105890186D01*
X121316552Y-105788729D01*
X121287222Y-105752991D01*
X121253453Y-105689814D01*
X121203557Y-105596467D01*
X121152757Y-105429000D01*
X121152037Y-105426627D01*
X121134641Y-105250000D01*
X121152037Y-105073373D01*
X121203557Y-104903534D01*
X121203557Y-104903533D01*
X121287221Y-104747011D01*
X121287222Y-104747009D01*
X121316552Y-104711271D01*
X121399814Y-104609814D01*
X121530238Y-104502779D01*
X121537009Y-104497222D01*
X121554913Y-104487652D01*
X121693533Y-104413557D01*
X121770578Y-104390186D01*
X121863373Y-104362037D01*
X121929557Y-104355519D01*
X121995740Y-104349000D01*
X122084260Y-104349000D01*
X122150443Y-104355519D01*
X122150443Y-104355519D01*
G37*
G36*
X124690443Y-104355519D02*
X124756627Y-104362037D01*
X124849422Y-104390186D01*
X124926467Y-104413557D01*
X125065087Y-104487652D01*
X125082991Y-104497222D01*
X125089762Y-104502779D01*
X125220186Y-104609814D01*
X125303448Y-104711271D01*
X125332778Y-104747009D01*
X125332779Y-104747011D01*
X125416443Y-104903533D01*
X125416443Y-104903534D01*
X125467963Y-105073373D01*
X125485359Y-105250000D01*
X125467963Y-105426627D01*
X125467243Y-105429000D01*
X125416443Y-105596467D01*
X125366547Y-105689814D01*
X125332778Y-105752991D01*
X125303448Y-105788729D01*
X125220186Y-105890186D01*
X125118729Y-105973448D01*
X125082991Y-106002778D01*
X125082989Y-106002779D01*
X124926467Y-106086443D01*
X124869853Y-106103616D01*
X124756627Y-106137963D01*
X124690443Y-106144481D01*
X124624260Y-106151000D01*
X124535740Y-106151000D01*
X124469557Y-106144481D01*
X124403373Y-106137963D01*
X124290147Y-106103616D01*
X124233533Y-106086443D01*
X124077011Y-106002779D01*
X124077009Y-106002778D01*
X124041271Y-105973448D01*
X123939814Y-105890186D01*
X123856552Y-105788729D01*
X123827222Y-105752991D01*
X123793453Y-105689814D01*
X123743557Y-105596467D01*
X123692757Y-105429000D01*
X123692037Y-105426627D01*
X123674641Y-105250000D01*
X123692037Y-105073373D01*
X123743557Y-104903534D01*
X123743557Y-104903533D01*
X123827221Y-104747011D01*
X123827222Y-104747009D01*
X123856552Y-104711271D01*
X123939814Y-104609814D01*
X124070238Y-104502779D01*
X124077009Y-104497222D01*
X124094913Y-104487652D01*
X124233533Y-104413557D01*
X124310578Y-104390186D01*
X124403373Y-104362037D01*
X124469557Y-104355519D01*
X124535740Y-104349000D01*
X124624260Y-104349000D01*
X124690443Y-104355519D01*
X124690443Y-104355519D01*
G37*
G36*
X128610443Y-102895519D02*
X128676627Y-102902037D01*
X128789853Y-102936384D01*
X128846467Y-102953557D01*
X128928155Y-102997221D01*
X129002991Y-103037222D01*
X129038729Y-103066552D01*
X129140186Y-103149814D01*
X129219951Y-103247009D01*
X129252778Y-103287009D01*
X129252779Y-103287011D01*
X129336443Y-103443533D01*
X129336443Y-103443534D01*
X129387963Y-103613373D01*
X129405359Y-103790000D01*
X129387963Y-103966627D01*
X129353616Y-104079853D01*
X129336443Y-104136467D01*
X129274160Y-104252989D01*
X129252778Y-104292991D01*
X129223448Y-104328729D01*
X129140186Y-104430186D01*
X129058502Y-104497221D01*
X129002991Y-104542778D01*
X129002989Y-104542779D01*
X128846467Y-104626443D01*
X128808490Y-104637963D01*
X128676627Y-104677963D01*
X128610443Y-104684481D01*
X128544260Y-104691000D01*
X128455740Y-104691000D01*
X128389557Y-104684481D01*
X128323373Y-104677963D01*
X128191510Y-104637963D01*
X128153533Y-104626443D01*
X127997011Y-104542779D01*
X127997009Y-104542778D01*
X127941498Y-104497221D01*
X127859814Y-104430186D01*
X127776552Y-104328729D01*
X127747222Y-104292991D01*
X127725840Y-104252989D01*
X127663557Y-104136467D01*
X127646384Y-104079853D01*
X127612037Y-103966627D01*
X127594641Y-103790000D01*
X127612037Y-103613373D01*
X127663557Y-103443534D01*
X127663557Y-103443533D01*
X127747221Y-103287011D01*
X127747222Y-103287009D01*
X127780049Y-103247009D01*
X127859814Y-103149814D01*
X127961271Y-103066552D01*
X127997009Y-103037222D01*
X128071845Y-102997221D01*
X128153533Y-102953557D01*
X128210147Y-102936384D01*
X128323373Y-102902037D01*
X128389558Y-102895518D01*
X128455740Y-102889000D01*
X128544260Y-102889000D01*
X128610443Y-102895519D01*
X128610443Y-102895519D01*
G37*
G36*
X88360443Y-102855519D02*
X88426627Y-102862037D01*
X88515512Y-102889000D01*
X88596467Y-102913557D01*
X88735087Y-102987652D01*
X88752991Y-102997222D01*
X88788729Y-103026552D01*
X88890186Y-103109814D01*
X88973448Y-103211271D01*
X89002778Y-103247009D01*
X89002779Y-103247011D01*
X89086443Y-103403533D01*
X89086443Y-103403534D01*
X89137963Y-103573373D01*
X89155359Y-103750000D01*
X89137963Y-103926627D01*
X89125829Y-103966627D01*
X89086443Y-104096467D01*
X89065062Y-104136467D01*
X89002778Y-104252991D01*
X88973448Y-104288729D01*
X88890186Y-104390186D01*
X88788729Y-104473448D01*
X88752991Y-104502778D01*
X88752989Y-104502779D01*
X88596467Y-104586443D01*
X88539853Y-104603616D01*
X88426627Y-104637963D01*
X88360442Y-104644482D01*
X88294260Y-104651000D01*
X88205740Y-104651000D01*
X88139557Y-104644481D01*
X88073373Y-104637963D01*
X87960147Y-104603616D01*
X87903533Y-104586443D01*
X87747011Y-104502779D01*
X87747009Y-104502778D01*
X87711271Y-104473448D01*
X87609814Y-104390186D01*
X87526552Y-104288729D01*
X87497222Y-104252991D01*
X87434938Y-104136467D01*
X87413557Y-104096467D01*
X87374171Y-103966627D01*
X87362037Y-103926627D01*
X87344641Y-103750000D01*
X87362037Y-103573373D01*
X87413557Y-103403534D01*
X87413557Y-103403533D01*
X87497221Y-103247011D01*
X87497222Y-103247009D01*
X87526552Y-103211271D01*
X87609814Y-103109814D01*
X87711271Y-103026552D01*
X87747009Y-102997222D01*
X87764913Y-102987652D01*
X87903533Y-102913557D01*
X87984488Y-102889000D01*
X88073373Y-102862037D01*
X88139557Y-102855519D01*
X88205740Y-102849000D01*
X88294260Y-102849000D01*
X88360443Y-102855519D01*
X88360443Y-102855519D01*
G37*
G36*
X122150442Y-100355518D02*
X122216627Y-100362037D01*
X122329853Y-100396384D01*
X122386467Y-100413557D01*
X122525087Y-100487652D01*
X122542991Y-100497222D01*
X122578729Y-100526552D01*
X122680186Y-100609814D01*
X122763448Y-100711271D01*
X122792778Y-100747009D01*
X122792779Y-100747011D01*
X122876443Y-100903533D01*
X122876443Y-100903534D01*
X122927963Y-101073373D01*
X122945359Y-101250000D01*
X122927963Y-101426627D01*
X122893616Y-101539853D01*
X122876443Y-101596467D01*
X122802348Y-101735087D01*
X122792778Y-101752991D01*
X122763448Y-101788729D01*
X122680186Y-101890186D01*
X122578729Y-101973448D01*
X122542991Y-102002778D01*
X122542989Y-102002779D01*
X122386467Y-102086443D01*
X122329853Y-102103616D01*
X122216627Y-102137963D01*
X122150442Y-102144482D01*
X122084260Y-102151000D01*
X121995740Y-102151000D01*
X121929558Y-102144482D01*
X121863373Y-102137963D01*
X121750147Y-102103616D01*
X121693533Y-102086443D01*
X121537011Y-102002779D01*
X121537009Y-102002778D01*
X121501271Y-101973448D01*
X121399814Y-101890186D01*
X121316552Y-101788729D01*
X121287222Y-101752991D01*
X121277652Y-101735087D01*
X121203557Y-101596467D01*
X121186384Y-101539853D01*
X121152037Y-101426627D01*
X121134641Y-101250000D01*
X121152037Y-101073373D01*
X121203557Y-100903534D01*
X121203557Y-100903533D01*
X121287221Y-100747011D01*
X121287222Y-100747009D01*
X121316552Y-100711271D01*
X121399814Y-100609814D01*
X121501271Y-100526552D01*
X121537009Y-100497222D01*
X121554913Y-100487652D01*
X121693533Y-100413557D01*
X121750147Y-100396384D01*
X121863373Y-100362037D01*
X121929558Y-100355518D01*
X121995740Y-100349000D01*
X122084260Y-100349000D01*
X122150442Y-100355518D01*
X122150442Y-100355518D01*
G37*
G36*
X120401000Y-102151000D02*
X118599000Y-102151000D01*
X118599000Y-100349000D01*
X120401000Y-100349000D01*
X120401000Y-102151000D01*
X120401000Y-102151000D01*
G37*
G36*
X124690442Y-100355518D02*
X124756627Y-100362037D01*
X124869853Y-100396384D01*
X124926467Y-100413557D01*
X125065087Y-100487652D01*
X125082991Y-100497222D01*
X125118729Y-100526552D01*
X125220186Y-100609814D01*
X125303448Y-100711271D01*
X125332778Y-100747009D01*
X125332779Y-100747011D01*
X125416443Y-100903533D01*
X125416443Y-100903534D01*
X125467963Y-101073373D01*
X125485359Y-101250000D01*
X125467963Y-101426627D01*
X125433616Y-101539853D01*
X125416443Y-101596467D01*
X125342348Y-101735087D01*
X125332778Y-101752991D01*
X125303448Y-101788729D01*
X125220186Y-101890186D01*
X125118729Y-101973448D01*
X125082991Y-102002778D01*
X125082989Y-102002779D01*
X124926467Y-102086443D01*
X124869853Y-102103616D01*
X124756627Y-102137963D01*
X124690442Y-102144482D01*
X124624260Y-102151000D01*
X124535740Y-102151000D01*
X124469558Y-102144482D01*
X124403373Y-102137963D01*
X124290147Y-102103616D01*
X124233533Y-102086443D01*
X124077011Y-102002779D01*
X124077009Y-102002778D01*
X124041271Y-101973448D01*
X123939814Y-101890186D01*
X123856552Y-101788729D01*
X123827222Y-101752991D01*
X123817652Y-101735087D01*
X123743557Y-101596467D01*
X123726384Y-101539853D01*
X123692037Y-101426627D01*
X123674641Y-101250000D01*
X123692037Y-101073373D01*
X123743557Y-100903534D01*
X123743557Y-100903533D01*
X123827221Y-100747011D01*
X123827222Y-100747009D01*
X123856552Y-100711271D01*
X123939814Y-100609814D01*
X124041271Y-100526552D01*
X124077009Y-100497222D01*
X124094913Y-100487652D01*
X124233533Y-100413557D01*
X124290147Y-100396384D01*
X124403373Y-100362037D01*
X124469558Y-100355518D01*
X124535740Y-100349000D01*
X124624260Y-100349000D01*
X124690442Y-100355518D01*
X124690442Y-100355518D01*
G37*
G36*
X129401000Y-102151000D02*
X127599000Y-102151000D01*
X127599000Y-100349000D01*
X129401000Y-100349000D01*
X129401000Y-102151000D01*
X129401000Y-102151000D01*
G37*
G36*
X89151000Y-102111000D02*
X87349000Y-102111000D01*
X87349000Y-100309000D01*
X89151000Y-100309000D01*
X89151000Y-102111000D01*
X89151000Y-102111000D01*
G37*
G36*
X108388677Y-97153465D02*
X108426364Y-97164898D01*
X108461103Y-97183466D01*
X108491548Y-97208452D01*
X108516534Y-97238897D01*
X108535102Y-97273636D01*
X108546535Y-97311323D01*
X108551000Y-97356661D01*
X108551000Y-98443339D01*
X108546535Y-98488677D01*
X108535102Y-98526364D01*
X108516534Y-98561103D01*
X108491548Y-98591548D01*
X108461103Y-98616534D01*
X108426364Y-98635102D01*
X108388677Y-98646535D01*
X108343339Y-98651000D01*
X107506661Y-98651000D01*
X107461323Y-98646535D01*
X107423636Y-98635102D01*
X107388897Y-98616534D01*
X107358452Y-98591548D01*
X107333466Y-98561103D01*
X107314898Y-98526364D01*
X107303465Y-98488677D01*
X107299000Y-98443339D01*
X107299000Y-97356661D01*
X107303465Y-97311323D01*
X107314898Y-97273636D01*
X107333466Y-97238897D01*
X107358452Y-97208452D01*
X107388897Y-97183466D01*
X107423636Y-97164898D01*
X107461323Y-97153465D01*
X107506661Y-97149000D01*
X108343339Y-97149000D01*
X108388677Y-97153465D01*
X108388677Y-97153465D01*
G37*
G36*
X106338677Y-97153465D02*
X106376364Y-97164898D01*
X106411103Y-97183466D01*
X106441548Y-97208452D01*
X106466534Y-97238897D01*
X106485102Y-97273636D01*
X106496535Y-97311323D01*
X106501000Y-97356661D01*
X106501000Y-98443339D01*
X106496535Y-98488677D01*
X106485102Y-98526364D01*
X106466534Y-98561103D01*
X106441548Y-98591548D01*
X106411103Y-98616534D01*
X106376364Y-98635102D01*
X106338677Y-98646535D01*
X106293339Y-98651000D01*
X105456661Y-98651000D01*
X105411323Y-98646535D01*
X105373636Y-98635102D01*
X105338897Y-98616534D01*
X105308452Y-98591548D01*
X105283466Y-98561103D01*
X105264898Y-98526364D01*
X105253465Y-98488677D01*
X105249000Y-98443339D01*
X105249000Y-97356661D01*
X105253465Y-97311323D01*
X105264898Y-97273636D01*
X105283466Y-97238897D01*
X105308452Y-97208452D01*
X105338897Y-97183466D01*
X105373636Y-97164898D01*
X105411323Y-97153465D01*
X105456661Y-97149000D01*
X106293339Y-97149000D01*
X106338677Y-97153465D01*
X106338677Y-97153465D01*
G37*
G36*
X108388677Y-94853465D02*
X108426364Y-94864898D01*
X108461103Y-94883466D01*
X108491548Y-94908452D01*
X108516534Y-94938897D01*
X108535102Y-94973636D01*
X108546535Y-95011323D01*
X108551000Y-95056661D01*
X108551000Y-96143339D01*
X108546535Y-96188677D01*
X108535102Y-96226364D01*
X108516534Y-96261103D01*
X108491548Y-96291548D01*
X108461103Y-96316534D01*
X108426364Y-96335102D01*
X108388677Y-96346535D01*
X108343339Y-96351000D01*
X107506661Y-96351000D01*
X107461323Y-96346535D01*
X107423636Y-96335102D01*
X107388897Y-96316534D01*
X107358452Y-96291548D01*
X107333466Y-96261103D01*
X107314898Y-96226364D01*
X107303465Y-96188677D01*
X107299000Y-96143339D01*
X107299000Y-95056661D01*
X107303465Y-95011323D01*
X107314898Y-94973636D01*
X107333466Y-94938897D01*
X107358452Y-94908452D01*
X107388897Y-94883466D01*
X107423636Y-94864898D01*
X107461323Y-94853465D01*
X107506661Y-94849000D01*
X108343339Y-94849000D01*
X108388677Y-94853465D01*
X108388677Y-94853465D01*
G37*
G36*
X106338677Y-94853465D02*
X106376364Y-94864898D01*
X106411103Y-94883466D01*
X106441548Y-94908452D01*
X106466534Y-94938897D01*
X106485102Y-94973636D01*
X106496535Y-95011323D01*
X106501000Y-95056661D01*
X106501000Y-96143339D01*
X106496535Y-96188677D01*
X106485102Y-96226364D01*
X106466534Y-96261103D01*
X106441548Y-96291548D01*
X106411103Y-96316534D01*
X106376364Y-96335102D01*
X106338677Y-96346535D01*
X106293339Y-96351000D01*
X105456661Y-96351000D01*
X105411323Y-96346535D01*
X105373636Y-96335102D01*
X105338897Y-96316534D01*
X105308452Y-96291548D01*
X105283466Y-96261103D01*
X105264898Y-96226364D01*
X105253465Y-96188677D01*
X105249000Y-96143339D01*
X105249000Y-95056661D01*
X105253465Y-95011323D01*
X105264898Y-94973636D01*
X105283466Y-94938897D01*
X105308452Y-94908452D01*
X105338897Y-94883466D01*
X105373636Y-94864898D01*
X105411323Y-94853465D01*
X105456661Y-94849000D01*
X106293339Y-94849000D01*
X106338677Y-94853465D01*
X106338677Y-94853465D01*
G37*
G36*
X133087938Y-92883875D02*
X133231579Y-92912447D01*
X133444037Y-93000450D01*
X133490634Y-93019751D01*
X133532042Y-93036903D01*
X133789079Y-93208650D01*
X133802454Y-93217587D01*
X134032413Y-93447546D01*
X134032415Y-93447549D01*
X134213097Y-93717958D01*
X134313215Y-93959663D01*
X134337553Y-94018422D01*
X134401000Y-94337389D01*
X134401000Y-94662611D01*
X134387148Y-94732249D01*
X134337553Y-94981579D01*
X134306453Y-95056661D01*
X134213098Y-95282040D01*
X134032413Y-95552454D01*
X133802454Y-95782413D01*
X133802451Y-95782415D01*
X133532042Y-95963097D01*
X133231579Y-96087553D01*
X133125256Y-96108702D01*
X132912611Y-96151000D01*
X132587389Y-96151000D01*
X132374744Y-96108702D01*
X132268421Y-96087553D01*
X131967958Y-95963097D01*
X131697549Y-95782415D01*
X131697546Y-95782413D01*
X131467587Y-95552454D01*
X131286902Y-95282040D01*
X131193547Y-95056661D01*
X131162447Y-94981579D01*
X131112852Y-94732249D01*
X131099000Y-94662611D01*
X131099000Y-94337389D01*
X131162447Y-94018422D01*
X131186786Y-93959663D01*
X131286903Y-93717958D01*
X131467585Y-93447549D01*
X131467587Y-93447546D01*
X131697546Y-93217587D01*
X131710921Y-93208650D01*
X131967958Y-93036903D01*
X132009367Y-93019751D01*
X132055963Y-93000450D01*
X132268421Y-92912447D01*
X132412062Y-92883875D01*
X132587389Y-92849000D01*
X132912611Y-92849000D01*
X133087938Y-92883875D01*
X133087938Y-92883875D01*
G37*
G36*
X88837938Y-92883875D02*
X88981579Y-92912447D01*
X89194037Y-93000450D01*
X89240634Y-93019751D01*
X89282042Y-93036903D01*
X89539079Y-93208650D01*
X89552454Y-93217587D01*
X89782413Y-93447546D01*
X89782415Y-93447549D01*
X89963097Y-93717958D01*
X90063215Y-93959663D01*
X90087553Y-94018422D01*
X90151000Y-94337389D01*
X90151000Y-94662611D01*
X90137148Y-94732249D01*
X90087553Y-94981579D01*
X90056453Y-95056661D01*
X89963098Y-95282040D01*
X89782413Y-95552454D01*
X89552454Y-95782413D01*
X89552451Y-95782415D01*
X89282042Y-95963097D01*
X88981579Y-96087553D01*
X88875256Y-96108702D01*
X88662611Y-96151000D01*
X88337389Y-96151000D01*
X88124744Y-96108702D01*
X88018421Y-96087553D01*
X87717958Y-95963097D01*
X87447549Y-95782415D01*
X87447546Y-95782413D01*
X87217587Y-95552454D01*
X87036902Y-95282040D01*
X86943547Y-95056661D01*
X86912447Y-94981579D01*
X86862852Y-94732249D01*
X86849000Y-94662611D01*
X86849000Y-94337389D01*
X86912447Y-94018422D01*
X86936786Y-93959663D01*
X87036903Y-93717958D01*
X87217585Y-93447549D01*
X87217587Y-93447546D01*
X87447546Y-93217587D01*
X87460921Y-93208650D01*
X87717958Y-93036903D01*
X87759367Y-93019751D01*
X87805963Y-93000450D01*
X88018421Y-92912447D01*
X88162062Y-92883875D01*
X88337389Y-92849000D01*
X88662611Y-92849000D01*
X88837938Y-92883875D01*
X88837938Y-92883875D01*
G37*
G36*
X123709350Y-94874694D02*
X123808770Y-94915875D01*
X123898249Y-94975663D01*
X123974337Y-95051751D01*
X124034125Y-95141230D01*
X124075306Y-95240650D01*
X124096300Y-95346194D01*
X124096300Y-95453806D01*
X124075306Y-95559350D01*
X124034125Y-95658770D01*
X123974337Y-95748249D01*
X123898249Y-95824337D01*
X123898246Y-95824339D01*
X123808770Y-95884125D01*
X123709350Y-95925306D01*
X123603806Y-95946300D01*
X123496194Y-95946300D01*
X123390650Y-95925306D01*
X123291230Y-95884125D01*
X123201754Y-95824339D01*
X123201751Y-95824337D01*
X123125663Y-95748249D01*
X123065875Y-95658770D01*
X123024694Y-95559350D01*
X123003700Y-95453806D01*
X123003700Y-95346194D01*
X123024694Y-95240650D01*
X123065875Y-95141230D01*
X123125663Y-95051751D01*
X123201751Y-94975663D01*
X123291230Y-94915875D01*
X123390650Y-94874694D01*
X123496194Y-94853700D01*
X123603806Y-94853700D01*
X123709350Y-94874694D01*
X123709350Y-94874694D01*
G37*
G36*
X116089350Y-93858694D02*
X116188770Y-93899875D01*
X116278249Y-93959663D01*
X116354337Y-94035751D01*
X116414125Y-94125230D01*
X116455306Y-94224650D01*
X116476300Y-94330194D01*
X116476300Y-94437806D01*
X116455306Y-94543350D01*
X116414125Y-94642770D01*
X116354337Y-94732249D01*
X116278249Y-94808337D01*
X116278246Y-94808339D01*
X116188770Y-94868125D01*
X116089350Y-94909306D01*
X115983806Y-94930300D01*
X115876194Y-94930300D01*
X115770650Y-94909306D01*
X115671230Y-94868125D01*
X115581754Y-94808339D01*
X115581751Y-94808337D01*
X115505663Y-94732249D01*
X115445875Y-94642770D01*
X115404694Y-94543350D01*
X115383700Y-94437806D01*
X115383700Y-94330194D01*
X115404694Y-94224650D01*
X115445875Y-94125230D01*
X115505663Y-94035751D01*
X115581751Y-93959663D01*
X115671230Y-93899875D01*
X115770650Y-93858694D01*
X115876194Y-93837700D01*
X115983806Y-93837700D01*
X116089350Y-93858694D01*
X116089350Y-93858694D01*
G37*
G36*
X123709350Y-92842694D02*
X123808770Y-92883875D01*
X123898249Y-92943663D01*
X123974337Y-93019751D01*
X124034125Y-93109230D01*
X124075306Y-93208650D01*
X124096300Y-93314194D01*
X124096300Y-93421806D01*
X124075306Y-93527350D01*
X124034125Y-93626770D01*
X123974337Y-93716249D01*
X123898249Y-93792337D01*
X123898246Y-93792339D01*
X123808770Y-93852125D01*
X123709350Y-93893306D01*
X123603806Y-93914300D01*
X123496194Y-93914300D01*
X123390650Y-93893306D01*
X123291230Y-93852125D01*
X123201754Y-93792339D01*
X123201751Y-93792337D01*
X123125663Y-93716249D01*
X123065875Y-93626770D01*
X123024694Y-93527350D01*
X123003700Y-93421806D01*
X123003700Y-93314194D01*
X123024694Y-93208650D01*
X123065875Y-93109230D01*
X123125663Y-93019751D01*
X123201751Y-92943663D01*
X123291230Y-92883875D01*
X123390650Y-92842694D01*
X123496194Y-92821700D01*
X123603806Y-92821700D01*
X123709350Y-92842694D01*
X123709350Y-92842694D01*
G37*
M02*
